<svg width="14" height="9" viewBox="0 0 14 9" fill="none" xmlns="http://www.w3.org/2000/svg">
<path opacity="0.5" d="M9.54545 3.81818C10.6018 3.81818 11.4482 2.96545 11.4482 1.90909C11.4482 0.852727 10.6018 0 9.54545 0C8.48909 0 7.63636 0.852727 7.63636 1.90909C7.63636 2.96545 8.48909 3.81818 9.54545 3.81818ZM4.45455 3.81818C5.51091 3.81818 6.35727 2.96545 6.35727 1.90909C6.35727 0.852727 5.51091 0 4.45455 0C3.39818 0 2.54545 0.852727 2.54545 1.90909C2.54545 2.96545 3.39818 3.81818 4.45455 3.81818ZM4.45455 5.09091C2.97182 5.09091 0 5.83545 0 7.31818V8.27273C0 8.62273 0.286364 8.90909 0.636364 8.90909H8.27273C8.62273 8.90909 8.90909 8.62273 8.90909 8.27273V7.31818C8.90909 5.83545 5.93727 5.09091 4.45455 5.09091ZM9.54545 5.09091C9.36091 5.09091 9.15091 5.10364 8.92818 5.12273C8.94091 5.12909 8.94727 5.14182 8.95364 5.14818C9.67909 5.67636 10.1818 6.38273 10.1818 7.31818V8.27273C10.1818 8.49545 10.1373 8.71182 10.0673 8.90909H13.3636C13.7136 8.90909 14 8.62273 14 8.27273V7.31818C14 5.83545 11.0282 5.09091 9.54545 5.09091Z" fill="white"/>
</svg>
