

<svg width="19" height="22" viewBox="0 0 19 22" fill="none" xmlns="http://www.w3.org/2000/svg">

<path d="M18.6006 15.1893C18.5185 15.0911 18.4379 14.9929 18.3588 14.8981C17.2712 13.5914 16.6132 12.8027 16.6132 9.10348C16.6132 7.1883 16.1519 5.61687 15.2428 4.4383C14.5724 3.56763 13.6662 2.90714 12.4718 2.41902C12.4564 2.41053 12.4427 2.39938 12.4313 2.38612C12.0017 0.957098 10.826 0 9.50012 0C8.17421 0 6.99908 0.957098 6.56947 2.38464C6.55802 2.39744 6.54449 2.40824 6.52942 2.41656C3.74214 3.55634 2.38755 5.74308 2.38755 9.10201C2.38755 12.8027 1.73053 13.5914 0.641918 14.8967C0.562818 14.9914 0.482235 15.0877 0.400168 15.1879C0.188181 15.4418 0.0538694 15.7508 0.0131292 16.0782C-0.0276111 16.4056 0.0269252 16.7377 0.170284 17.0353C0.475313 17.6737 1.12542 18.07 1.86747 18.07H17.1382C17.8768 18.07 18.5225 17.6742 18.8285 17.0387C18.9725 16.7411 19.0275 16.4086 18.9871 16.0809C18.9467 15.7531 18.8126 15.4437 18.6006 15.1893ZM9.50012 22C10.2145 21.9994 10.9154 21.8068 11.5285 21.4426C12.1416 21.0783 12.644 20.556 12.9825 19.9311C12.9984 19.9012 13.0063 19.8676 13.0054 19.8338C13.0044 19.7999 12.9946 19.7669 12.977 19.7378C12.9594 19.7088 12.9345 19.6848 12.9048 19.6682C12.8751 19.6516 12.8416 19.6428 12.8075 19.6429H6.19374C6.1596 19.6427 6.126 19.6514 6.09622 19.668C6.06645 19.6846 6.04151 19.7086 6.02384 19.7376C6.00617 19.7667 5.99636 19.7997 5.99538 19.8336C5.9944 19.8675 6.00228 19.9011 6.01824 19.9311C6.35666 20.556 6.859 21.0782 7.472 21.4424C8.08501 21.8067 8.78582 21.9993 9.50012 22Z" fill="#6A6C87"/>

</svg>


