<svg width="10" height="10" viewBox="0 0 10 10" fill="none" xmlns="http://www.w3.org/2000/svg">
<path d="M5.25022 0.735353C4.16331 0.630972 3.07473 0.91693 2.17943 1.54202C1.28414 2.1671 0.640603 3.09049 0.364078 4.14682C0.0875535 5.20314 0.196099 6.32341 0.670275 7.30699C1.14445 8.29058 1.95329 9.07324 2.95193 9.51482C3.53029 9.77636 4.15593 9.91712 4.79057 9.92851C5.80089 9.9286 6.78309 9.59581 7.58529 8.98162C7.6821 8.90779 7.74568 8.79857 7.76205 8.67792C7.77842 8.55727 7.74626 8.43506 7.67262 8.3381C7.63603 8.2895 7.59016 8.24865 7.53766 8.21792C7.48517 8.18718 7.42709 8.16717 7.36681 8.15905C7.30652 8.15093 7.24522 8.15485 7.18646 8.17059C7.1277 8.18634 7.07265 8.21359 7.02451 8.25076C6.54778 8.61086 5.9905 8.84938 5.40087 8.94569C4.81124 9.04199 4.20703 8.99319 3.6405 8.80349C3.07398 8.61379 2.5622 8.28892 2.14946 7.85697C1.73671 7.42502 1.43543 6.89902 1.27167 6.32446C1.10791 5.7499 1.08661 5.14409 1.20961 4.55945C1.33261 3.97481 1.5962 3.42894 1.97759 2.96907C2.35898 2.5092 2.84667 2.14918 3.39847 1.92016C3.95027 1.69114 4.54957 1.60001 5.1445 1.65467C6.06782 1.76154 6.91871 2.20701 7.53258 2.90494C8.14645 3.60287 8.47968 4.50365 8.46783 5.43306V5.74563C8.4673 5.85122 8.4455 5.95563 8.40373 6.05262C8.36196 6.1496 8.30107 6.23718 8.2247 6.31011C8.14834 6.38305 8.05806 6.43985 7.95925 6.47712C7.86045 6.51439 7.75515 6.53137 7.64964 6.52705C7.43922 6.50394 7.24538 6.40193 7.10719 6.24157C6.969 6.0812 6.89675 5.87441 6.90499 5.66289V3.67716C6.90499 3.55526 6.85657 3.43834 6.77036 3.35214C6.68416 3.26593 6.56725 3.21751 6.44534 3.21751C6.33311 3.21655 6.22441 3.2567 6.13973 3.33036C6.05506 3.40403 6.00026 3.50613 5.98568 3.61741C5.5579 3.21456 4.99206 2.99085 4.40445 2.99227C4.00509 2.99527 3.61315 3.10044 3.26593 3.29778C2.91872 3.49511 2.6278 3.77804 2.42088 4.11962C2.21395 4.46121 2.09791 4.85007 2.08379 5.2492C2.06968 5.64832 2.15797 6.04441 2.34026 6.39976C2.52254 6.7551 2.79275 7.05787 3.12516 7.27923C3.45757 7.5006 3.84111 7.63319 4.23926 7.66438C4.63741 7.69557 5.03692 7.62433 5.39975 7.45743C5.76257 7.29053 6.07664 7.03353 6.31204 6.71091C6.44546 6.91731 6.62318 7.0914 6.83229 7.22053C7.0414 7.34966 7.27665 7.43059 7.52094 7.45744C7.76524 7.48429 8.01245 7.45638 8.24462 7.37575C8.47678 7.29513 8.68807 7.16379 8.86314 6.9913C9.03163 6.831 9.16515 6.63759 9.25533 6.42323C9.34551 6.20886 9.39038 5.97816 9.38715 5.74563V5.43306C9.39743 4.27793 8.9809 3.15966 8.21746 2.29272C7.45401 1.42579 6.39738 0.87121 5.25022 0.735353ZM4.41365 6.75228C4.13273 6.75228 3.85812 6.66898 3.62455 6.51291C3.39097 6.35684 3.20892 6.13501 3.10142 5.87548C2.99392 5.61594 2.96579 5.33036 3.02059 5.05484C3.0754 4.77932 3.21067 4.52624 3.40931 4.3276C3.60795 4.12896 3.86103 3.99369 4.13655 3.93888C4.41207 3.88408 4.69766 3.91221 4.95719 4.01971C5.21672 4.12721 5.43855 4.30926 5.59462 4.54283C5.75069 4.77641 5.83399 5.05102 5.83399 5.33193C5.83278 5.70826 5.68275 6.06883 5.41664 6.33493C5.15054 6.60103 4.78997 6.75107 4.41365 6.75228Z" fill="#666890"/>
</svg>
