

<svg width="11" height="11" viewBox="0 0 11 11" fill="none" xmlns="http://www.w3.org/2000/svg">

<path d="M0.6875 11C0.492708 11 0.329542 10.9296 0.198 10.7888C0.0664583 10.648 0.000458333 10.474 0 10.2667V4.4L1.46094 0.678333C1.54115 0.470555 1.66719 0.305555 1.83906 0.183333C2.01094 0.0611109 2.2 0 2.40625 0H8.59375C8.8 0 8.98906 0.0611109 9.16094 0.183333C9.33281 0.305555 9.45885 0.470555 9.53906 0.678333L11 4.4V10.2667C11 10.4744 10.934 10.6487 10.802 10.7895C10.67 10.9303 10.5068 11.0005 10.3125 11H9.625C9.43021 11 9.26704 10.9296 9.1355 10.7888C9.00396 10.648 8.93796 10.474 8.9375 10.2667V9.53333H2.0625V10.2667C2.0625 10.4744 1.9965 10.6487 1.8645 10.7895C1.7325 10.9303 1.56933 11.0005 1.375 11H0.6875ZM1.925 2.93333H9.05781L8.49062 1.46667H2.50938L1.925 2.93333ZM3.09375 7.33333C3.38021 7.33333 3.62381 7.22651 3.82456 7.01287C4.02531 6.79922 4.12546 6.53938 4.125 6.23333C4.12454 5.92729 4.0244 5.66769 3.82456 5.45453C3.62473 5.24138 3.38112 5.13431 3.09375 5.13333C2.80637 5.13235 2.563 5.23942 2.36363 5.45453C2.16425 5.66964 2.06387 5.92924 2.0625 6.23333C2.06113 6.53742 2.1615 6.79727 2.36363 7.01287C2.56575 7.22847 2.80912 7.33529 3.09375 7.33333ZM7.90625 7.33333C8.19271 7.33333 8.43631 7.22651 8.63706 7.01287C8.83781 6.79922 8.93796 6.53938 8.9375 6.23333C8.93704 5.92729 8.83689 5.66769 8.63706 5.45453C8.43723 5.24138 8.19362 5.13431 7.90625 5.13333C7.61887 5.13235 7.3755 5.23942 7.17613 5.45453C6.97675 5.66964 6.87638 5.92924 6.875 6.23333C6.87362 6.53742 6.974 6.79727 7.17613 7.01287C7.37825 7.22847 7.62162 7.33529 7.90625 7.33333Z" fill="#7C7E98"/>

</svg>


