

<svg width="13" height="14" viewBox="0 0 13 14" fill="none" xmlns="http://www.w3.org/2000/svg">

<path d="M7.04275 0.538462C7.04275 0.395653 6.98568 0.258693 6.8841 0.157712C6.78252 0.0567306 6.64474 0 6.50108 0C6.35743 0 6.21965 0.0567306 6.11807 0.157712C6.01649 0.258693 5.95942 0.395653 5.95942 0.538462V1.07692H4.875C4.44402 1.07692 4.0307 1.24712 3.72595 1.55006C3.4212 1.853 3.25 2.26388 3.25 2.69231V3.23508C3.82464 3.23508 4.37574 3.462 4.78206 3.86592C5.18839 4.26985 5.41667 4.81769 5.41667 5.38892V14H7.58333V7.00431C7.58321 6.38365 7.7988 5.78201 8.19363 5.30121C8.58845 4.82041 9.13826 4.48998 9.75 4.36585V2.69231C9.75 2.26388 9.5788 1.853 9.27405 1.55006C8.9693 1.24712 8.55598 1.07692 8.125 1.07692H7.04275V0.538462ZM11.375 14H8.66667V7.00431C8.66667 6.57588 8.83787 6.165 9.14262 5.86206C9.44736 5.55912 9.86069 5.38892 10.2917 5.38892H11.375V5.38462C11.806 5.38462 12.2193 5.55481 12.524 5.85775C12.8288 6.16069 13 6.57157 13 7V12.3846C13 12.813 12.8288 13.2239 12.524 13.5269C12.2193 13.8298 11.806 14 11.375 14ZM3.07992 4.45308C3.20263 4.37399 3.34453 4.3293 3.49067 4.32371C3.6368 4.31811 3.78175 4.35183 3.91021 4.42131C4.03867 4.49078 4.14589 4.59344 4.22055 4.71844C4.29521 4.84344 4.33455 4.98616 4.33442 5.13154L4.33333 13.4615C4.33333 13.6043 4.27627 13.7413 4.17468 13.8423C4.0731 13.9433 3.93533 14 3.79167 14H1.625C1.19402 14 0.780698 13.8298 0.475952 13.5269C0.171205 13.2239 0 12.813 0 12.3846V7.31554C0.000113412 7.04622 0.0679642 6.78119 0.19738 6.54458C0.326796 6.30797 0.513669 6.10728 0.741 5.96077L3.07992 4.45308Z" fill="#7C7C91"/>

</svg>


