

<svg width="12" height="12" viewBox="0 0 12 12" fill="none" xmlns="http://www.w3.org/2000/svg">

<path d="M0 1.75C0 0.784 0.784 0 1.75 0H10.25C11.216 0 12 0.784 12 1.75V10.25C12 10.7141 11.8156 11.1592 11.4874 11.4874C11.1592 11.8156 10.7141 12 10.25 12H1.75C1.28587 12 0.840752 11.8156 0.512563 11.4874C0.184375 11.1592 0 10.7141 0 10.25V1.75ZM4 4.5C4 4.36739 3.94732 4.24021 3.85355 4.14645C3.75979 4.05268 3.63261 4 3.5 4C3.36739 4 3.24021 4.05268 3.14645 4.14645C3.05268 4.24021 3 4.36739 3 4.5V8.5C3 8.63261 3.05268 8.75979 3.14645 8.85355C3.24021 8.94732 3.36739 9 3.5 9C3.63261 9 3.75979 8.94732 3.85355 8.85355C3.94732 8.75979 4 8.63261 4 8.5V4.5ZM6 6C5.86739 6 5.74021 6.05268 5.64645 6.14645C5.55268 6.24021 5.5 6.36739 5.5 6.5V8.5C5.5 8.63261 5.55268 8.75979 5.64645 8.85355C5.74021 8.94732 5.86739 9 6 9C6.13261 9 6.25979 8.94732 6.35355 8.85355C6.44732 8.75979 6.5 8.63261 6.5 8.5V6.5C6.5 6.36739 6.44732 6.24021 6.35355 6.14645C6.25979 6.05268 6.13261 6 6 6ZM9 3.5C9 3.36739 8.94732 3.24021 8.85355 3.14645C8.75979 3.05268 8.63261 3 8.5 3C8.36739 3 8.24021 3.05268 8.14645 3.14645C8.05268 3.24021 8 3.36739 8 3.5V8.5C8 8.63261 8.05268 8.75979 8.14645 8.85355C8.24021 8.94732 8.36739 9 8.5 9C8.63261 9 8.75979 8.94732 8.85355 8.85355C8.94732 8.75979 9 8.63261 9 8.5V3.5Z" fill="#7C7C91"/>

</svg>


