<svg width="14" height="11" viewBox="0 0 14 11" fill="none" xmlns="http://www.w3.org/2000/svg">
<path opacity="0.5" d="M13.7586 5.75H12.7931C12.7291 5.75 12.6677 5.77634 12.6224 5.82322C12.5772 5.87011 12.5517 5.93369 12.5517 6V6.75H11.8276V4.25C11.8276 4.18369 11.8022 4.12011 11.7569 4.07322C11.7116 4.02634 11.6502 4 11.5862 4H10.7438L9.60931 2.355C9.5871 2.32269 9.55778 2.29632 9.52379 2.27806C9.48979 2.2598 9.45209 2.25018 9.41379 2.25H7.72414V1.5H8.44828C8.51229 1.5 8.57369 1.47366 8.61896 1.42678C8.66422 1.37989 8.68966 1.3163 8.68966 1.25V0.25C8.68966 0.183696 8.66422 0.120107 8.61896 0.0732233C8.57369 0.0263392 8.51229 0 8.44828 0H5.55172C5.48771 0 5.42631 0.0263392 5.38104 0.0732233C5.33578 0.120107 5.31034 0.183696 5.31034 0.25V1.25C5.31034 1.3163 5.33578 1.37989 5.38104 1.42678C5.42631 1.47366 5.48771 1.5 5.55172 1.5H6.27586V2.25H5.06897C5.03067 2.25018 4.99297 2.2598 4.95897 2.27806C4.92497 2.29632 4.89566 2.32269 4.87345 2.355L3.73897 4H2.41379C2.34978 4 2.28838 4.02634 2.24311 4.07322C2.19784 4.12011 2.17241 4.18369 2.17241 4.25V6.75H1.44828V6C1.44828 5.93369 1.42284 5.87011 1.37758 5.82322C1.33231 5.77634 1.27091 5.75 1.2069 5.75H0.241379C0.177362 5.75 0.115966 5.77634 0.0706984 5.82322C0.025431 5.87011 0 5.93369 0 6V9C0 9.0663 0.025431 9.12989 0.0706984 9.17677C0.115966 9.22366 0.177362 9.25 0.241379 9.25H1.2069C1.27091 9.25 1.33231 9.22366 1.37758 9.17677C1.42284 9.12989 1.44828 9.0663 1.44828 9V8.25H2.17241V9.5C2.17241 9.5663 2.19784 9.62989 2.24311 9.67677C2.28838 9.72366 2.34978 9.75 2.41379 9.75H5.21138L5.8631 10.4275C5.88566 10.4507 5.91241 10.469 5.94182 10.4814C5.97122 10.4939 6.00272 10.5002 6.03448 10.5H10.8621C10.8938 10.5002 10.9253 10.4939 10.9547 10.4814C10.9841 10.469 11.0109 10.4507 11.0334 10.4275L11.7576 9.6775C11.78 9.65414 11.7977 9.62643 11.8097 9.59597C11.8217 9.56551 11.8278 9.5329 11.8276 9.5V8.25H12.5517V9C12.5517 9.0663 12.5772 9.12989 12.6224 9.17677C12.6677 9.22366 12.7291 9.25 12.7931 9.25H13.7586C13.8226 9.25 13.884 9.22366 13.9293 9.17677C13.9746 9.12989 14 9.0663 14 9V6C14 5.93369 13.9746 5.87011 13.9293 5.82322C13.884 5.77634 13.8226 5.75 13.7586 5.75ZM7.91 6.66L6.7031 8.16C6.68041 8.18822 6.65199 8.21091 6.61986 8.22647C6.58774 8.24202 6.5527 8.25006 6.51724 8.25C6.46084 8.25011 6.40619 8.22977 6.36276 8.1925C6.33832 8.17151 6.31811 8.14573 6.3033 8.11665C6.28849 8.08756 6.27937 8.05573 6.27646 8.02299C6.27354 7.99025 6.27689 7.95723 6.28632 7.92583C6.29574 7.89443 6.31105 7.86526 6.33138 7.84L7.21 6.75H6.27586C6.22996 6.75007 6.18498 6.73659 6.14621 6.71113C6.10744 6.68567 6.07648 6.64929 6.05697 6.60625C6.03746 6.56321 6.03021 6.5153 6.03606 6.46814C6.04191 6.42098 6.06062 6.37653 6.09 6.34L7.2969 4.84C7.31718 4.81472 7.34208 4.79383 7.37016 4.77851C7.39825 4.7632 7.42897 4.75376 7.46057 4.75074C7.49217 4.74773 7.52404 4.75118 7.55436 4.76092C7.58467 4.77066 7.61283 4.78649 7.63724 4.8075C7.66165 4.82851 7.68182 4.85429 7.69661 4.88338C7.71139 4.91247 7.7205 4.94428 7.72342 4.97702C7.72633 5.00975 7.72299 5.04276 7.71359 5.07415C7.70419 5.10555 7.68891 5.13472 7.66862 5.16L6.79 6.25H7.72414C7.77004 6.24992 7.81502 6.2634 7.85379 6.28886C7.89256 6.31432 7.92351 6.35071 7.94303 6.39375C7.96254 6.43679 7.96979 6.48469 7.96394 6.53185C7.95809 6.57901 7.93938 6.62346 7.91 6.66Z" fill="#46597E"/>
</svg>
