

<svg width="14" height="14" viewBox="0 0 14 14" fill="none" xmlns="http://www.w3.org/2000/svg">

<path d="M3.18182 0C2.47991 0 1.90909 0.570818 1.90909 1.27273V4.45455H1.27273C0.569545 4.45455 0 5.02409 0 5.72727V8.90909C0 9.61227 0.569545 10.1818 1.27273 10.1818H1.90909V11.4545C1.90909 12.1565 2.47991 12.7273 3.18182 12.7273H7.63636V11.4545H3.18182V10.1818H8.3821L12.0909 6.47301V3.18182L8.90909 0H3.18182ZM3.18182 1.27273H8.27273V3.81818H10.8182V4.45455H3.18182V1.27273ZM2.54545 5.72727C3.24864 5.72727 3.81818 6.29682 3.81818 7H3.18182C3.18182 6.64936 2.89609 6.36364 2.54545 6.36364C2.19482 6.36364 1.90909 6.64936 1.90909 7V7.63636C1.90909 7.987 2.19482 8.27273 2.54545 8.27273C2.89609 8.27273 3.18182 7.987 3.18182 7.63636H3.81818C3.81818 8.33955 3.24864 8.90909 2.54545 8.90909C1.84227 8.90909 1.27273 8.33955 1.27273 7.63636V7C1.27273 6.29682 1.84227 5.72727 2.54545 5.72727ZM5.50107 5.72727C6.40661 5.75336 6.46183 6.54367 6.46183 6.6843H5.84659C5.84659 6.61876 5.85767 6.24059 5.49112 6.24059C5.37976 6.24059 5.12899 6.28994 5.14808 6.5973C5.16654 6.87921 5.53862 7.01235 5.60671 7.04226C5.74926 7.09444 6.45361 7.40879 6.45934 8.05025C6.46061 8.18643 6.4254 8.89955 5.51349 8.90909C4.5214 8.91991 4.45455 8.06619 4.45455 7.88992H5.07475C5.07475 7.98346 5.08268 8.43575 5.51349 8.40075C5.77249 8.37911 5.82898 8.1927 5.83789 8.05398C5.85253 7.82043 5.62963 7.68003 5.39418 7.56676C5.06327 7.40767 4.53991 7.21215 4.53036 6.59233C4.52209 6.03424 4.93216 5.71136 5.50107 5.72727ZM7 5.72727H7.66992L8.26776 8.04776L8.86932 5.72727H9.54545L8.68413 8.90909H7.85636L7 5.72727ZM11.4545 8.90909L8.90909 11.4545H10.8182V14H12.0909V11.4545H14L11.4545 8.90909Z" fill="white"/>

</svg>


