<svg width="16" height="12" viewBox="0 0 16 12" fill="none" xmlns="http://www.w3.org/2000/svg">
<path d="M9.33333 2.99996H0.666667C0.489856 2.99996 0.320286 2.92972 0.195262 2.8047C0.0702379 2.67967 0 2.5101 0 2.33329C0 2.15648 0.0702379 1.98691 0.195262 1.86189C0.320286 1.73686 0.489856 1.66663 0.666667 1.66663H9.33333C9.51014 1.66663 9.67971 1.73686 9.80474 1.86189C9.92976 1.98691 10 2.15648 10 2.33329C10 2.5101 9.92976 2.67967 9.80474 2.8047C9.67971 2.92972 9.51014 2.99996 9.33333 2.99996ZM15.3333 2.99996H12.6667C12.4899 2.99996 12.3203 2.92972 12.1953 2.8047C12.0702 2.67967 12 2.5101 12 2.33329C12 2.15648 12.0702 1.98691 12.1953 1.86189C12.3203 1.73686 12.4899 1.66663 12.6667 1.66663H15.3333C15.5101 1.66663 15.6797 1.73686 15.8047 1.86189C15.9298 1.98691 16 2.15648 16 2.33329C16 2.5101 15.9298 2.67967 15.8047 2.8047C15.6797 2.92972 15.5101 2.99996 15.3333 2.99996Z" fill="#ffffff"/>
<path d="M11 4.66667C10.5385 4.66667 10.0874 4.52982 9.70367 4.27343C9.31995 4.01704 9.02089 3.65262 8.84428 3.22626C8.66768 2.7999 8.62147 2.33075 8.7115 1.87812C8.80153 1.4255 9.02376 1.00974 9.35008 0.683419C9.67641 0.357096 10.0922 0.134868 10.5448 0.0448354C10.9974 -0.0451968 11.4666 0.00101099 11.8929 0.177615C12.3193 0.35422 12.6837 0.653289 12.9401 1.037C13.1965 1.42072 13.3333 1.87184 13.3333 2.33333C13.3333 2.95217 13.0875 3.54566 12.6499 3.98325C12.2123 4.42083 11.6188 4.66667 11 4.66667ZM11 1.33333C10.8022 1.33333 10.6089 1.39198 10.4444 1.50186C10.28 1.61175 10.1518 1.76792 10.0761 1.95065C10.0004 2.13338 9.98063 2.33444 10.0192 2.52842C10.0578 2.72241 10.153 2.90059 10.2929 3.04044C10.4327 3.18029 10.6109 3.27553 10.8049 3.31412C10.9989 3.3527 11.2 3.3329 11.3827 3.25721C11.5654 3.18153 11.7216 3.05335 11.8315 2.8889C11.9414 2.72445 12 2.53112 12 2.33333C12 2.06812 11.8946 1.81376 11.7071 1.62623C11.5196 1.43869 11.2652 1.33333 11 1.33333ZM15.3333 9.66667H6.66667C6.48986 9.66667 6.32029 9.59643 6.19526 9.47141C6.07024 9.34638 6 9.17681 6 9C6 8.82319 6.07024 8.65362 6.19526 8.52859C6.32029 8.40357 6.48986 8.33333 6.66667 8.33333H15.3333C15.5101 8.33333 15.6797 8.40357 15.8047 8.52859C15.9298 8.65362 16 8.82319 16 9C16 9.17681 15.9298 9.34638 15.8047 9.47141C15.6797 9.59643 15.5101 9.66667 15.3333 9.66667ZM3.33333 9.66667H0.666667C0.489856 9.66667 0.320286 9.59643 0.195262 9.47141C0.0702379 9.34638 0 9.17681 0 9C0 8.82319 0.0702379 8.65362 0.195262 8.52859C0.320286 8.40357 0.489856 8.33333 0.666667 8.33333H3.33333C3.51014 8.33333 3.67971 8.40357 3.80474 8.52859C3.92976 8.65362 4 8.82319 4 9C4 9.17681 3.92976 9.34638 3.80474 9.47141C3.67971 9.59643 3.51014 9.66667 3.33333 9.66667Z" fill="#ffffff"/>
<path d="M4.99984 11.3333C4.53835 11.3333 4.08722 11.1964 3.70351 10.9401C3.31979 10.6837 3.02072 10.3192 2.84412 9.89289C2.66751 9.46653 2.62131 8.99737 2.71134 8.54475C2.80137 8.09213 3.0236 7.67637 3.34992 7.35004C3.67624 7.02372 4.092 6.80149 4.54463 6.71146C4.99725 6.62143 5.4664 6.66764 5.89277 6.84424C6.31913 7.02085 6.68354 7.31991 6.93993 7.70363C7.19632 8.08734 7.33317 8.53847 7.33317 8.99996C7.33317 9.6188 7.08734 10.2123 6.64975 10.6499C6.21217 11.0875 5.61868 11.3333 4.99984 11.3333ZM4.99984 7.99996C4.80206 7.99996 4.60872 8.05861 4.44427 8.16849C4.27982 8.27837 4.15165 8.43455 4.07596 8.61728C4.00027 8.8 3.98047 9.00107 4.01905 9.19505C4.05764 9.38903 4.15288 9.56721 4.29273 9.70707C4.43258 9.84692 4.61077 9.94216 4.80475 9.98075C4.99873 10.0193 5.1998 9.99953 5.38252 9.92384C5.56525 9.84815 5.72143 9.71998 5.83131 9.55553C5.94119 9.39108 5.99984 9.19774 5.99984 8.99996C5.99984 8.73474 5.89448 8.48039 5.70694 8.29285C5.51941 8.10532 5.26505 7.99996 4.99984 7.99996Z" fill="#ffffff"/>
</svg>
