<svg width="14" height="14" viewBox="0 0 14 14" fill="none" xmlns="http://www.w3.org/2000/svg">
<g opacity="0.5" clip-path="url(#clip0_1_384)">
<path d="M11.375 11.9583H2.62496C2.24381 11.963 1.87635 11.8165 1.60302 11.5508C1.32969 11.2851 1.17277 10.922 1.16663 10.5408V3.45917C1.17277 3.07805 1.32969 2.71489 1.60302 2.44921C1.87635 2.18354 2.24381 2.03699 2.62496 2.04167H5.30829C5.39445 2.04224 5.47942 2.06189 5.55708 2.09921C5.63475 2.13653 5.70318 2.19059 5.75746 2.25751L7.27413 4.11251H11.3575C11.5476 4.10786 11.7369 4.14093 11.9142 4.2098C12.0916 4.27866 12.2535 4.38197 12.3907 4.51376C12.5279 4.64554 12.6377 4.8032 12.7136 4.97762C12.7896 5.15204 12.8303 5.33978 12.8333 5.53001V10.5408C12.8271 10.922 12.6702 11.2851 12.3969 11.5508C12.1236 11.8165 11.7561 11.963 11.375 11.9583Z" fill="white"/>
</g>
<defs>
<clipPath id="clip0_1_384">
<rect width="14" height="14" fill="white"/>
</clipPath>
</defs>
</svg>
