<svg width="9" height="11" viewBox="0 0 9 11" fill="none" xmlns="http://www.w3.org/2000/svg">
<path opacity="0.5" d="M0.583381 1.36672e-06C0.506724 -0.000164738 0.430789 0.0148114 0.359935 0.0440702C0.289081 0.0733289 0.224704 0.116294 0.170499 0.170499C0.116294 0.224704 0.0733289 0.289081 0.0440702 0.359935C0.0148114 0.430789 -0.000164738 0.506724 1.36672e-06 0.583381V9.91662C1.36672e-06 10.2084 0.291621 10.5 0.583381 10.5H5.83338C6.125 10.5 6.41662 10.2084 6.41662 9.91662V7H6.70838C7 7 7 7.29162 7 7.29162V8.45838C7 9.04162 7.29162 9.33338 7.875 9.33338C8.45838 9.33338 8.75 9.04162 8.75 8.45838V5.25C8.75 4.66662 7.58338 4.08338 7.58338 3.5V1.75H7L6.41662 1.16662V0.583381C6.41679 0.506736 6.40181 0.430812 6.37256 0.359967C6.34331 0.289123 6.30036 0.224752 6.24617 0.170549C6.19198 0.116346 6.12762 0.0733775 6.05678 0.0441105C5.98595 0.0148435 5.91003 -0.000146279 5.83338 1.36672e-06H0.583381ZM1.16662 1.16662H5.25V3.5H1.16662V1.16662ZM6.41662 2.91662H7V3.79162C7 4.375 8.16662 4.95838 8.16662 5.54162V8.45838C8.16662 8.75 7.875 8.75 7.875 8.75C7.875 8.75 7.58338 8.75 7.58338 8.45838V7C7.58338 6.70838 7.29162 6.41662 7 6.41662H6.41662V2.91662Z" fill="#46597E"/>
</svg>
