

<svg width="17" height="19" viewBox="0 0 17 19" fill="none" xmlns="http://www.w3.org/2000/svg">

<path d="M14.9999 11.9998H16.3333C16.5101 11.9998 16.6796 11.9296 16.8047 11.8046C16.9297 11.6796 16.9999 11.51 16.9999 11.3332C16.9999 11.1564 16.9297 10.9868 16.8047 10.8618C16.6796 10.7367 16.5101 10.6665 16.3333 10.6665H14.9999C14.8231 10.6665 14.6535 10.7367 14.5285 10.8618C14.4035 10.9868 14.3333 11.1564 14.3333 11.3332C14.3333 11.51 14.4035 11.6796 14.5285 11.8046C14.6535 11.9296 14.8231 11.9998 14.9999 11.9998Z" fill="white"/>

<path d="M14.9999 14.0001H16.3333C16.5101 14.0001 16.6796 13.9298 16.8047 13.8048C16.9297 13.6798 16.9999 13.5102 16.9999 13.3334C16.9999 13.1566 16.9297 12.987 16.8047 12.862C16.6796 12.737 16.5101 12.6667 16.3333 12.6667H14.9999C14.8231 12.6667 14.6535 12.737 14.5285 12.862C14.4035 12.987 14.3333 13.1566 14.3333 13.3334C14.3333 13.5102 14.4035 13.6798 14.5285 13.8048C14.6535 13.9298 14.8231 14.0001 14.9999 14.0001Z" fill="white"/>

<path d="M14.9999 10.0001H16.3333C16.5101 10.0001 16.6796 9.92984 16.8047 9.80482C16.9297 9.6798 16.9999 9.51023 16.9999 9.33341C16.9999 9.1566 16.9297 8.98703 16.8047 8.86201C16.6796 8.73699 16.5101 8.66675 16.3333 8.66675H14.9999C14.8231 8.66675 14.6535 8.73699 14.5285 8.86201C14.4035 8.98703 14.3333 9.1566 14.3333 9.33341C14.3333 9.51023 14.4035 9.6798 14.5285 9.80482C14.6535 9.92984 14.8231 10.0001 14.9999 10.0001Z" fill="white"/>

<path d="M10.3334 14.6667H9.00008C8.91168 14.6667 8.82689 14.7019 8.76438 14.7644C8.70187 14.8269 8.66675 14.9117 8.66675 15.0001C8.66675 15.0885 8.70187 15.1733 8.76438 15.2358C8.82689 15.2983 8.91168 15.3334 9.00008 15.3334H10.3334C10.4218 15.3334 10.5066 15.2983 10.5691 15.2358C10.6316 15.1733 10.6667 15.0885 10.6667 15.0001C10.6667 14.9117 10.6316 14.8269 10.5691 14.7644C10.5066 14.7019 10.4218 14.6667 10.3334 14.6667Z" fill="white"/>

<path d="M14.3333 7.33317C14.3338 7.50982 14.4042 7.67908 14.5291 7.80399C14.654 7.9289 14.8233 7.99931 14.9999 7.99984H16.3333C16.5101 7.99984 16.6796 7.9296 16.8047 7.80458C16.9297 7.67955 16.9999 7.50998 16.9999 7.33317C16.9999 7.15636 16.9297 6.98679 16.8047 6.86177C16.6796 6.73674 16.5101 6.6665 16.3333 6.6665H14.9999C14.8233 6.66703 14.654 6.73744 14.5291 6.86235C14.4042 6.98726 14.3338 7.15652 14.3333 7.33317Z" fill="white"/>

<path d="M15 6V1.66667C15 1.4478 14.9569 1.23107 14.8731 1.02886C14.7894 0.826652 14.6666 0.64292 14.5118 0.488155C14.3571 0.333391 14.1733 0.210625 13.9711 0.126867C13.7689 0.0431096 13.5522 0 13.3333 0H6C5.55797 0 5.13405 0.175595 4.82149 0.488155C4.50893 0.800716 4.33333 1.22464 4.33333 1.66667V7.24L4.62 7.72C5.08678 8.4972 5.33336 9.38673 5.33333 10.2933V10.7767C5.33353 11.5034 5.13653 12.2165 4.76333 12.84L4.19 12.4933C4.50296 11.9755 4.66783 11.3817 4.66667 10.7767V10.2933C4.6668 9.50788 4.45367 8.73712 4.05 8.06333L3.71333 7.50333C3.6828 7.45188 3.66668 7.39316 3.66667 7.33333V4.66667C3.66614 4.49002 3.59573 4.32075 3.47082 4.19584C3.34591 4.07093 3.17665 4.00053 3 4H2.33333V14.3333C2.33268 14.4217 2.29807 14.5064 2.23667 14.57L0 16.8067V19H8.52667L10.1967 17.3333H6C5.38138 17.3326 4.7883 17.0866 4.35086 16.6491C3.91343 16.2117 3.66737 15.6186 3.66667 15V13.3333H4.33333V15C4.33333 15.442 4.50893 15.866 4.82149 16.1785C5.13405 16.4911 5.55797 16.6667 6 16.6667H13.3333C13.5522 16.6667 13.7689 16.6236 13.9711 16.5398C14.1733 16.456 14.3571 16.3333 14.5118 16.1785C14.6666 16.0237 14.7894 15.84 14.8731 15.6378C14.9569 15.4356 15 15.2189 15 15V14.6667C14.7286 14.6676 14.4635 14.5855 14.2402 14.4312C14.017 14.277 13.8463 14.0581 13.7512 13.804C13.6561 13.5498 13.6411 13.2727 13.7082 13.0097C13.7753 12.7468 13.9214 12.5108 14.1267 12.3333C13.9824 12.2097 13.8666 12.0563 13.7872 11.8837C13.7078 11.7111 13.6667 11.5233 13.6667 11.3333C13.6667 11.1433 13.7078 10.9556 13.7872 10.783C13.8666 10.6104 13.9824 10.457 14.1267 10.3333C13.9824 10.2097 13.8666 10.0563 13.7872 9.88369C13.7078 9.71108 13.6667 9.52333 13.6667 9.33333C13.6667 9.14334 13.7078 8.95559 13.7872 8.78298C13.8666 8.61036 13.9824 8.45697 14.1267 8.33333C13.9214 8.1559 13.7753 7.91984 13.7082 7.65692C13.6411 7.394 13.6561 7.11683 13.7512 6.8627C13.8463 6.60856 14.017 6.38965 14.2402 6.23542C14.4635 6.08119 14.7286 5.99903 15 6ZM8.66667 0.666667H10.6667V1.33333H8.66667V0.666667ZM7.33333 0.666667H8V1.33333H7.33333V0.666667ZM10.3333 16H9C8.73478 16 8.48043 15.8946 8.29289 15.7071C8.10536 15.5196 8 15.2652 8 15C8 14.7348 8.10536 14.4804 8.29289 14.2929C8.48043 14.1054 8.73478 14 9 14H10.3333C10.5986 14 10.8529 14.1054 11.0404 14.2929C11.228 14.4804 11.3333 14.7348 11.3333 15C11.3333 15.2652 11.228 15.5196 11.0404 15.7071C10.8529 15.8946 10.5986 16 10.3333 16ZM9.91667 11.5533C9.88539 11.5888 9.84692 11.6172 9.80381 11.6367C9.76071 11.6561 9.71396 11.6662 9.66667 11.6662C9.61938 11.6662 9.57262 11.6561 9.52952 11.6367C9.48642 11.6172 9.44795 11.5888 9.41667 11.5533C9.30667 11.43 6.66667 8.44 6.66667 6.66667C6.66667 5.87102 6.98274 5.10796 7.54535 4.54535C8.10796 3.98274 8.87102 3.66667 9.66667 3.66667C10.4623 3.66667 11.2254 3.98274 11.788 4.54535C12.3506 5.10796 12.6667 5.87102 12.6667 6.66667C12.6667 8.44 10.0267 11.43 9.91667 11.5533Z" fill="white"/>

<path d="M9.66659 4.33325C9.04796 4.33396 8.45488 4.58002 8.01745 5.01745C7.58002 5.45488 7.33396 6.04796 7.33325 6.66659C7.33325 7.79992 8.83992 9.83659 9.66659 10.8233C10.4933 9.83659 11.9999 7.79992 11.9999 6.66659C11.9992 6.04796 11.7532 5.45488 11.3157 5.01745C10.8783 4.58002 10.2852 4.33396 9.66659 4.33325ZM9.66659 7.66659C9.4688 7.66659 9.27546 7.60794 9.11102 7.49806C8.94657 7.38817 8.81839 7.23199 8.74271 7.04927C8.66702 6.86654 8.64721 6.66548 8.6858 6.47149C8.72439 6.27751 8.81963 6.09933 8.95948 5.95948C9.09933 5.81963 9.27751 5.72439 9.47149 5.6858C9.66548 5.64721 9.86654 5.66702 10.0493 5.74271C10.232 5.81839 10.3882 5.94657 10.4981 6.11102C10.6079 6.27546 10.6666 6.4688 10.6666 6.66659C10.6658 6.93156 10.5602 7.18545 10.3728 7.37282C10.1855 7.56018 9.93156 7.66579 9.66659 7.66659Z" fill="white"/>

<path d="M9.66659 7.00016C9.85068 7.00016 9.99992 6.85092 9.99992 6.66683C9.99992 6.48273 9.85068 6.3335 9.66659 6.3335C9.48249 6.3335 9.33325 6.48273 9.33325 6.66683C9.33325 6.85092 9.48249 7.00016 9.66659 7.00016Z" fill="white"/>

</svg>


