

<svg width="13" height="18" viewBox="0 0 13 18" fill="none" xmlns="http://www.w3.org/2000/svg">

<path d="M3.44434 13.2656C3.96222 13.9257 4.43359 14.6209 4.85505 15.3464C5.21486 16.0286 5.36486 16.4912 5.62781 17.3133C5.78908 17.7675 5.93483 17.903 6.24819 17.903C6.58966 17.903 6.74458 17.6724 6.86428 17.3158C7.11284 16.5394 7.30787 15.947 7.61557 15.3872C8.21936 14.3063 8.96963 13.3459 9.70683 12.4229C9.9064 12.1616 11.1967 10.6396 11.7776 9.43875C11.7776 9.43875 12.4916 8.11958 12.4916 6.27723C12.4916 4.55389 11.7875 3.35866 11.7875 3.35866L9.76031 3.90155L8.52921 7.14402L8.22463 7.59113L8.16373 7.67213L8.08274 7.77353L7.94055 7.93548L7.73736 8.13861L6.64109 9.03175L3.90028 10.6143L3.44434 13.2656Z" fill="#34A853"/>

<path d="M0.615479 9.21697C1.28441 10.7449 2.57435 12.088 3.4471 13.2667L8.08267 7.77561C8.08267 7.77561 7.4296 8.62972 6.24495 8.62972C4.92539 8.62972 3.85937 7.57599 3.85937 6.24731C3.85937 5.33616 4.40753 4.71022 4.40753 4.71022L1.26079 5.5534L0.615479 9.21697Z" fill="#FBBC04"/>

<path d="M8.13458 0.282382C9.67416 0.778774 10.9919 1.82089 11.789 3.35759L8.08422 7.77246C8.08422 7.77246 8.63238 7.13519 8.63238 6.22971C8.63238 4.87008 7.48751 3.85437 6.2507 3.85437C5.08114 3.85437 4.40942 4.70706 4.40942 4.70706V1.92575L8.13458 0.282382Z" fill="#4285F4"/>

<path d="M1.46484 2.2331C2.38438 1.13292 4.00243 0 6.23314 0C7.31541 0 8.13077 0.284133 8.13077 0.284133L4.40596 4.70949H1.76688L1.46484 2.2331Z" fill="#1A73E8"/>

<path d="M0.615402 9.21698C0.615402 9.21698 0 8.01184 0 6.26596C0 4.61586 0.641459 3.17348 1.46458 2.23311L4.40779 4.70989L0.615402 9.21698Z" fill="#EA4335"/>

</svg>


