

<svg width="15" height="16" viewBox="0 0 15 16" fill="none" xmlns="http://www.w3.org/2000/svg">

<path d="M11.0526 1.6C10.8433 1.6 10.6424 1.51571 10.4944 1.36569C10.3463 1.21566 10.2632 1.01217 10.2632 0.8C10.2632 0.587827 10.3463 0.384344 10.4944 0.234315C10.6424 0.0842854 10.8433 0 11.0526 0H14.2105C14.4199 0 14.6207 0.0842854 14.7688 0.234315C14.9168 0.384344 15 0.587827 15 0.8V4C15 4.21217 14.9168 4.41566 14.7688 4.56569C14.6207 4.71571 14.4199 4.8 14.2105 4.8C14.0011 4.8 13.8003 4.71571 13.6523 4.56569C13.5042 4.41566 13.4211 4.21217 13.4211 4V2.7312L8.84763 7.3656C8.69958 7.51558 8.49881 7.59983 8.28947 7.59983C8.08013 7.59983 7.87936 7.51558 7.73132 7.3656L5.52632 5.1312L1.34763 9.3656C1.19873 9.51133 0.999312 9.59196 0.792315 9.59014C0.585317 9.58832 0.387308 9.50418 0.240933 9.35585C0.0945579 9.20753 0.0115298 9.00688 0.00973105 8.79712C0.0079323 8.58736 0.0875068 8.38528 0.231316 8.2344L4.96816 3.4344C5.11621 3.28442 5.31698 3.20017 5.52632 3.20017C5.73566 3.20017 5.93643 3.28442 6.08447 3.4344L8.28947 5.6688L12.3047 1.6H11.0526ZM1.57895 12.8V15.2C1.57895 15.4122 1.49577 15.6157 1.34772 15.7657C1.19966 15.9157 0.998855 16 0.789474 16C0.580092 16 0.379286 15.9157 0.231231 15.7657C0.0831764 15.6157 0 15.4122 0 15.2V12.8C0 12.5878 0.0831764 12.3843 0.231231 12.2343C0.379286 12.0843 0.580092 12 0.789474 12C0.998855 12 1.19966 12.0843 1.34772 12.2343C1.49577 12.3843 1.57895 12.5878 1.57895 12.8ZM5.52632 9.6C5.52632 9.38783 5.44314 9.18434 5.29508 9.03432C5.14703 8.88429 4.94622 8.8 4.73684 8.8C4.52746 8.8 4.32666 8.88429 4.1786 9.03432C4.03055 9.18434 3.94737 9.38783 3.94737 9.6V15.2C3.94737 15.4122 4.03055 15.6157 4.1786 15.7657C4.32666 15.9157 4.52746 16 4.73684 16C4.94622 16 5.14703 15.9157 5.29508 15.7657C5.44314 15.6157 5.52632 15.4122 5.52632 15.2V9.6ZM8.68421 10.4C8.89359 10.4 9.0944 10.4843 9.24245 10.6343C9.39051 10.7843 9.47368 10.9878 9.47368 11.2V15.2C9.47368 15.4122 9.39051 15.6157 9.24245 15.7657C9.0944 15.9157 8.89359 16 8.68421 16C8.47483 16 8.27402 15.9157 8.12597 15.7657C7.97791 15.6157 7.89474 15.4122 7.89474 15.2V11.2C7.89474 10.9878 7.97791 10.7843 8.12597 10.6343C8.27402 10.4843 8.47483 10.4 8.68421 10.4ZM13.4211 7.2C13.4211 6.98783 13.3379 6.78434 13.1898 6.63432C13.0418 6.48429 12.841 6.4 12.6316 6.4C12.4222 6.4 12.2214 6.48429 12.0733 6.63432C11.9253 6.78434 11.8421 6.98783 11.8421 7.2V15.2C11.8421 15.4122 11.9253 15.6157 12.0733 15.7657C12.2214 15.9157 12.4222 16 12.6316 16C12.841 16 13.0418 15.9157 13.1898 15.7657C13.3379 15.6157 13.4211 15.4122 13.4211 15.2V7.2Z" fill="#7C7C91"/>

</svg>


