

<svg width="8" height="8" viewBox="0 0 8 8" fill="none" xmlns="http://www.w3.org/2000/svg">

<path d="M4 0C3.20888 0 2.43552 0.234596 1.77772 0.674121C1.11992 1.11365 0.607234 1.73836 0.304484 2.46927C0.00173314 3.20017 -0.0774802 4.00444 0.0768607 4.78036C0.231202 5.55628 0.612164 6.26902 1.17157 6.82843C1.73098 7.38784 2.44372 7.7688 3.21964 7.92314C3.99556 8.07748 4.79983 7.99827 5.53073 7.69552C6.26164 7.39277 6.88635 6.88008 7.32588 6.22228C7.7654 5.56448 8 4.79112 8 4C7.99882 2.9395 7.57701 1.92277 6.82713 1.17288C6.07724 0.422986 5.0605 0.00117943 4 0ZM4 7.2C3.3671 7.2 2.74841 7.01232 2.22218 6.6607C1.69594 6.30908 1.28579 5.80931 1.04359 5.22459C0.801387 4.63986 0.738016 3.99645 0.861489 3.37571C0.984962 2.75497 1.28973 2.18479 1.73726 1.73726C2.18479 1.28973 2.75497 0.98496 3.37571 0.861487C3.99645 0.738014 4.63986 0.801385 5.22459 1.04359C5.80931 1.28579 6.30908 1.69594 6.6607 2.22217C7.01232 2.74841 7.2 3.3671 7.2 4C7.19903 4.84839 6.86158 5.66176 6.26167 6.26167C5.66176 6.86157 4.8484 7.19903 4 7.2ZM4 3.8C3.89391 3.8 3.79217 3.84214 3.71716 3.91716C3.64214 3.99217 3.6 4.09391 3.6 4.2V5.4C3.6 5.50609 3.64214 5.60783 3.71716 5.68284C3.79217 5.75786 3.89391 5.8 4 5.8C4.10609 5.8 4.20783 5.75786 4.28284 5.68284C4.35786 5.60783 4.4 5.50609 4.4 5.4V4.2C4.4 4.09391 4.35786 3.99217 4.28284 3.91716C4.20783 3.84214 4.10609 3.8 4 3.8ZM4 2.2C3.90111 2.2 3.80444 2.22932 3.72222 2.28426C3.63999 2.33921 3.57591 2.41729 3.53806 2.50866C3.50022 2.60002 3.49032 2.70055 3.50961 2.79754C3.5289 2.89454 3.57652 2.98363 3.64645 3.05355C3.71637 3.12348 3.80547 3.1711 3.90246 3.19039C3.99945 3.20968 4.09998 3.19978 4.19134 3.16194C4.28271 3.1241 4.3608 3.06001 4.41574 2.97778C4.47068 2.89556 4.5 2.79889 4.5 2.7C4.5 2.56739 4.44732 2.44021 4.35355 2.34645C4.25979 2.25268 4.13261 2.2 4 2.2Z" fill="#666890"/>

</svg>


