

<svg width="10" height="10" viewBox="0 0 10 10" fill="none" xmlns="http://www.w3.org/2000/svg">

<path d="M1.5 10C1.225 10 0.989667 9.90217 0.794 9.7065C0.598333 9.51083 0.500333 9.27533 0.5 9V3.3625C0.35 3.27083 0.229167 3.15217 0.1375 3.0065C0.0458334 2.86083 0 2.692 0 2.5V1C0 0.725 0.098 0.489667 0.294 0.294C0.49 0.0983333 0.725333 0.000333333 1 0H9C9.275 0 9.5105 0.098 9.7065 0.294C9.9025 0.49 10.0003 0.725333 10 1V2.5C10 2.69167 9.95417 2.8605 9.8625 3.0065C9.77083 3.1525 9.65 3.271 9.5 3.362V9C9.5 9.275 9.40217 9.5105 9.2065 9.7065C9.01083 9.9025 8.77533 10.0003 8.5 10H1.5ZM1 2.5H9V1H1V2.5ZM3.5 6H6.5V5H3.5V6Z" fill="#7C7C91"/>

</svg>


