

<svg width="12" height="12" viewBox="0 0 12 12" fill="none" xmlns="http://www.w3.org/2000/svg">

<path fill-rule="evenodd" clip-rule="evenodd" d="M2.60462 0.187076C4.8613 -0.0623587 7.13866 -0.0623587 9.39534 0.187076C10.6448 0.326883 11.6528 1.30918 11.7994 2.56089C12.0669 4.84586 12.0669 7.15414 11.7994 9.43911C11.6528 10.6908 10.6448 11.6731 9.39534 11.8129C7.13866 12.0624 4.8613 12.0624 2.60462 11.8129C1.35516 11.6731 0.347128 10.6908 0.200519 9.43911C-0.0668395 7.15438 -0.0668395 4.84635 0.200519 2.56162C0.274675 1.9535 0.552366 1.38821 0.988586 0.957359C1.42481 0.526505 1.99399 0.255337 2.60389 0.187804M5.99998 2.36428C6.14507 2.36428 6.28421 2.42182 6.3868 2.52424C6.48939 2.62666 6.54703 2.76556 6.54703 2.91041V5.45388H9.09482C9.23991 5.45388 9.37906 5.51142 9.48165 5.61383C9.58424 5.71625 9.64187 5.85516 9.64187 6C9.64187 6.14484 9.58424 6.28375 9.48165 6.38617C9.37906 6.48858 9.23991 6.54612 9.09482 6.54612H6.54703V9.0896C6.54703 9.23444 6.48939 9.37334 6.3868 9.47576C6.28421 9.57818 6.14507 9.63572 5.99998 9.63572C5.85489 9.63572 5.71575 9.57818 5.61316 9.47576C5.51056 9.37334 5.45293 9.23444 5.45293 9.0896V6.54612H2.90513C2.76005 6.54612 2.6209 6.48858 2.51831 6.38617C2.41572 6.28375 2.35808 6.14484 2.35808 6C2.35808 5.85516 2.41572 5.71625 2.51831 5.61383C2.6209 5.51142 2.76005 5.45388 2.90513 5.45388H5.45293V2.91041C5.45293 2.76556 5.51056 2.62666 5.61316 2.52424C5.71575 2.42182 5.85489 2.36428 5.99998 2.36428Z" fill="#34365F"/>

</svg>


