<svg width="16" height="18" viewBox="0 0 16 18" fill="none" xmlns="http://www.w3.org/2000/svg">
<path d="M8.03258 0.000137329L7.99893 0C3.58838 0 0 3.00256 0 6.69328C0 8.71669 1.23612 10.2949 2.6134 11.8663L7.98843 18L13.3866 11.8665C14.7637 10.295 16 8.71683 16 6.69342C16 3.0119 12.4287 0.0151062 8.03258 0.000137329ZM12.3701 11.2429C12.3701 11.2429 8.19459 16.0203 8.0055 16.2357L3.62991 11.2427C2.33355 9.76355 1.26058 8.40015 1.26058 6.69328C1.26058 3.5928 4.26644 1.06883 7.96758 1.05469H7.99992C11.7162 1.05469 14.7394 3.58429 14.7394 6.69342C14.7394 8.40028 13.6663 9.76355 12.3701 11.2429Z" fill="white"/>
<path d="M7.99952 2.34375C5.13302 2.34375 2.80078 4.29506 2.80078 6.69351C2.80078 9.09183 5.13302 11.0431 7.99952 11.0431C10.8662 11.0431 13.1984 9.09183 13.1984 6.69337C13.1984 4.29506 10.8662 2.34375 7.99952 2.34375ZM8.62981 9.94601V8.67586H7.36923V9.94601C5.70159 9.72066 4.38143 8.61598 4.11208 7.22072H5.63003V6.16603H4.11208C4.38143 4.77077 5.70159 3.66623 7.36923 3.44087V4.71089H8.62981V3.44087C10.2976 3.66623 11.6178 4.77077 11.8871 6.16603H10.369V7.22072H11.8871C11.6178 8.61612 10.2975 9.72066 8.62981 9.94601Z" fill="white"/>
<path d="M7.37305 6.16357H8.62657V7.21236H7.37305V6.16357Z" fill="white"/>
</svg>

