

<svg width="21" height="26" viewBox="0 0 21 26" fill="none" xmlns="http://www.w3.org/2000/svg">

<mask id="mask0_12_2353" style="mask-type:luminance" maskUnits="userSpaceOnUse" x="1" y="1" width="20" height="25">

<path d="M11.9291 10.5908H10.5926V12.7924H14.4128C14.2936 13.0802 14.1326 13.3489 13.9254 13.6092L13.9216 13.613C13.8705 13.6774 13.8174 13.7389 13.7625 13.7986C13.737 13.8251 13.7 13.8629 13.6716 13.8932L13.5496 14.0134L13.1066 14.4526L11.3006 16.2378H11.2997V16.2387L8.32942 19.1758L5.97632 16.8483H5.97544C5.91864 16.7915 5.85616 16.7261 5.7899 16.6552L5.77282 16.6362C5.64882 16.5028 5.53056 16.3656 5.41698 16.2226C5.41509 16.2207 5.41318 16.2188 5.41129 16.216C5.41034 16.215 5.4103 16.2141 5.4084 16.2141C4.38141 14.925 3.77001 13.3082 3.77001 11.5249C3.77001 10.9523 3.83436 10.3976 3.95363 9.86474L1.91385 9.28832C1.74252 10.0058 1.65259 10.7545 1.65259 11.5241C1.65259 13.7976 2.43916 15.8866 3.75389 17.5345L3.7624 17.5459C3.90816 17.7276 4.05962 17.9046 4.21769 18.075C4.22527 18.0825 4.23281 18.0901 4.23943 18.0986C4.318 18.1819 4.39753 18.2652 4.47799 18.3466L8.28779 22.1138L11.3006 19.1531V19.1522L13.4161 17.0594L13.5505 16.9268L15.1379 15.3575C15.171 15.3234 15.2164 15.277 15.2704 15.2184L15.2827 15.2061C15.3877 15.0915 15.4767 14.9855 15.5629 14.8786L15.5619 14.8804L15.5458 14.9003C16.2916 13.9651 16.7252 12.8274 16.7252 11.5241C16.7252 11.2032 16.6978 10.8918 16.6476 10.5908H16.1649H14.5292H13.6083H11.9291ZM11.3006 6.09946V6.10042C10.0493 6.10042 8.95323 6.50264 8.03888 7.19456C6.57743 8.23669 5.8751 10.0408 5.87605 11.5241C5.89119 13.0451 6.40133 14.1469 7.06106 14.907L8.35404 16.2378L9.82687 14.781L8.92951 13.8942C8.83391 13.7929 8.77617 13.7294 8.67868 13.613L8.67683 13.6102L8.67587 13.6083C8.19692 13.0072 7.94896 12.3684 7.94896 11.5241C7.94896 10.6807 8.19692 10.0418 8.67587 9.43976L8.67964 9.43599C8.81499 9.26467 9.03651 9.02802 9.27788 8.85764C9.28166 8.85481 9.28638 8.85102 9.29111 8.84818C9.87702 8.40426 10.4941 8.17333 11.3006 8.17333V8.17237C11.8817 8.17237 12.3645 8.29348 12.8075 8.52444H15.8222C15.6054 8.05495 15.1994 7.64042 14.6268 7.17378C13.7001 6.45252 12.5812 6.09946 11.3015 6.09946H11.3006ZM11.3006 1.87696C10.7194 1.87696 10.1496 1.92806 9.59681 2.02744L10.0531 4.0985C10.4572 4.0313 10.8737 3.99527 11.3006 3.99527C13.0753 3.99527 14.6854 4.60011 15.9708 5.61858H15.9717C15.9727 5.61952 15.9746 5.62148 15.9756 5.62242C16.4564 6.03038 16.8425 6.40423 17.2022 6.85099C17.2032 6.85289 17.2042 6.85382 17.2061 6.85476C18.2245 8.1411 18.8302 9.75021 18.8302 11.5259C18.8302 13.3101 18.2188 14.9268 17.1919 16.215C17.1909 16.216 17.1899 16.217 17.189 16.2179C17.1871 16.2207 17.1852 16.2226 17.1833 16.2245C17.0697 16.3674 16.9514 16.5056 16.8274 16.6382C16.8227 16.6438 16.818 16.6486 16.8132 16.6533C16.8123 16.6543 16.8113 16.6561 16.8104 16.6571C16.7432 16.7281 16.6817 16.7934 16.6239 16.8502L12.8652 20.5672L9.80793 23.6179L11.2997 25.0935L18.1213 18.3466C18.2027 18.2662 18.2822 18.1829 18.3599 18.0986C18.3674 18.0911 18.375 18.0835 18.3816 18.0759C18.5397 17.9046 18.6921 17.7285 18.8379 17.5459L18.8464 17.5354C20.1611 15.8866 20.9477 13.7976 20.9477 11.5249C20.9477 9.26273 20.1687 7.1832 18.8653 5.53812C18.8653 5.53812 18.8653 5.53817 18.8643 5.53627L18.8615 5.5325C18.4006 4.9466 17.8676 4.42596 17.2921 3.9631C17.2912 3.96121 17.2893 3.96028 17.2874 3.95933C15.6423 2.65596 13.5618 1.87696 11.3006 1.87696Z" fill="white"/>

</mask>

<g mask="url(#mask0_12_2353)">

<path d="M11.9291 10.5908H10.5926V12.7924H14.4128C14.2936 13.0802 14.1326 13.3489 13.9254 13.6092L13.9216 13.613C13.8705 13.6774 13.8174 13.7389 13.7625 13.7986C13.737 13.8251 13.7 13.8629 13.6716 13.8932L13.5496 14.0134L13.1066 14.4526L11.3006 16.2378H11.2997V16.2387L8.32942 19.1758L5.97632 16.8483H5.97544C5.91864 16.7915 5.85616 16.7261 5.7899 16.6552L5.77282 16.6362C5.64882 16.5028 5.53056 16.3656 5.41698 16.2226C5.41509 16.2207 5.41318 16.2188 5.41129 16.216C5.41034 16.215 5.4103 16.2141 5.4084 16.2141C4.38141 14.925 3.77001 13.3082 3.77001 11.5249C3.77001 10.9523 3.83436 10.3976 3.95363 9.86474L1.91385 9.28832C1.74252 10.0058 1.65259 10.7545 1.65259 11.5241C1.65259 13.7976 2.43916 15.8866 3.75389 17.5345L3.7624 17.5459C3.90816 17.7276 4.05962 17.9046 4.21769 18.075C4.22527 18.0825 4.23281 18.0901 4.23943 18.0986C4.318 18.1819 4.39753 18.2652 4.47799 18.3466L8.28779 22.1138L11.3006 19.1531V19.1522L13.4161 17.0594L13.5505 16.9268L15.1379 15.3575C15.171 15.3234 15.2164 15.277 15.2704 15.2184L15.2827 15.2061C15.3877 15.0915 15.4767 14.9855 15.5629 14.8786L15.5619 14.8804L15.5458 14.9003C16.2916 13.9651 16.7252 12.8274 16.7252 11.5241C16.7252 11.2032 16.6978 10.8918 16.6476 10.5908H16.1649H14.5292H13.6083H11.9291ZM11.3006 6.09946V6.10042C10.0493 6.10042 8.95323 6.50264 8.03888 7.19456C6.57743 8.23669 5.8751 10.0408 5.87605 11.5241C5.89119 13.0451 6.40133 14.1469 7.06106 14.907L8.35404 16.2378L9.82687 14.781L8.92951 13.8942C8.83391 13.7929 8.77617 13.7294 8.67868 13.613L8.67683 13.6102L8.67587 13.6083C8.19692 13.0072 7.94896 12.3684 7.94896 11.5241C7.94896 10.6807 8.19692 10.0418 8.67587 9.43976L8.67964 9.43599C8.81499 9.26467 9.03651 9.02802 9.27788 8.85764C9.28166 8.85481 9.28638 8.85102 9.29111 8.84818C9.87702 8.40426 10.4941 8.17333 11.3006 8.17333V8.17237C11.8817 8.17237 12.3645 8.29348 12.8075 8.52444H15.8222C15.6054 8.05495 15.1994 7.64042 14.6268 7.17378C13.7001 6.45252 12.5812 6.09946 11.3015 6.09946H11.3006ZM11.3006 1.87696C10.7194 1.87696 10.1496 1.92806 9.59681 2.02744L10.0531 4.0985C10.4572 4.0313 10.8737 3.99527 11.3006 3.99527C13.0753 3.99527 14.6854 4.60011 15.9708 5.61858H15.9717C15.9727 5.61952 15.9746 5.62148 15.9756 5.62242C16.4564 6.03038 16.8425 6.40423 17.2022 6.85099C17.2032 6.85289 17.2042 6.85382 17.2061 6.85476C18.2245 8.1411 18.8302 9.75021 18.8302 11.5259C18.8302 13.3101 18.2188 14.9268 17.1919 16.215C17.1909 16.216 17.1899 16.217 17.189 16.2179C17.1871 16.2207 17.1852 16.2226 17.1833 16.2245C17.0697 16.3674 16.9514 16.5056 16.8274 16.6382C16.8227 16.6438 16.818 16.6486 16.8132 16.6533C16.8123 16.6543 16.8113 16.6561 16.8104 16.6571C16.7432 16.7281 16.6817 16.7934 16.6239 16.8502L12.8652 20.5672L9.80793 23.6179L11.2997 25.0935L18.1213 18.3466C18.2027 18.2662 18.2822 18.1829 18.3599 18.0986C18.3674 18.0911 18.375 18.0835 18.3816 18.0759C18.5397 17.9046 18.6921 17.7285 18.8379 17.5459L18.8464 17.5354C20.1611 15.8866 20.9477 13.7976 20.9477 11.5249C20.9477 9.26273 20.1687 7.1832 18.8653 5.53812C18.8653 5.53812 18.8653 5.53817 18.8643 5.53627L18.8615 5.5325C18.4006 4.9466 17.8676 4.42596 17.2921 3.9631C17.2912 3.96121 17.2893 3.96028 17.2874 3.95933C15.6423 2.65596 13.5618 1.87696 11.3006 1.87696Z" fill="url(#paint0_linear_12_2353)"/>

</g>

<mask id="mask1_12_2353" style="mask-type:luminance" maskUnits="userSpaceOnUse" x="0" y="0" width="10" height="9">

<path d="M8.94193 2.67199C7.50699 3.03073 6.1676 3.74634 5.07246 4.74209C3.95271 5.76056 3.10275 7.06104 2.61339 8.49125L3.74258 8.86328C4.16757 7.62995 4.90776 6.4998 5.87228 5.62237C6.81313 4.76765 7.97079 4.14574 9.20223 3.83149L8.94193 2.67199ZM8.34273 -4.27233e-05C8.32096 0.00563648 8.30018 0.0112861 8.27936 0.0169653C6.41753 0.520521 4.68254 1.46608 3.25423 2.76472C1.79467 4.09271 0.672985 5.77755 0 7.63087L1.12926 8.0029C1.73788 6.34552 2.74878 4.831 4.05405 3.645C5.32429 2.48928 6.87656 1.63836 8.533 1.18024C8.55666 1.17361 8.57936 1.16794 8.60303 1.16131L8.34273 -4.27233e-05Z" fill="white"/>

</mask>

<g mask="url(#mask1_12_2353)">

<path d="M8.94193 2.67199C7.50699 3.03073 6.1676 3.74634 5.07246 4.74209C3.95271 5.76056 3.10275 7.06104 2.61339 8.49125L3.74258 8.86328C4.16757 7.62995 4.90776 6.4998 5.87228 5.62237C6.81313 4.76765 7.97079 4.14574 9.20223 3.83149L8.94193 2.67199ZM8.34273 -4.27233e-05C8.32096 0.00563648 8.30018 0.0112861 8.27936 0.0169653C6.41753 0.520521 4.68254 1.46608 3.25423 2.76472C1.79467 4.09271 0.672985 5.77755 0 7.63087L1.12926 8.0029C1.73788 6.34552 2.74878 4.831 4.05405 3.645C5.32429 2.48928 6.87656 1.63836 8.533 1.18024C8.55666 1.17361 8.57936 1.16794 8.60303 1.16131L8.34273 -4.27233e-05Z" fill="url(#paint1_linear_12_2353)"/>

</g>

<defs>

<linearGradient id="paint0_linear_12_2353" x1="4.41552" y1="5.34789" x2="18.597" y2="18.4987" gradientUnits="userSpaceOnUse">

<stop stop-color="#83D6E0"/>

<stop offset="1" stop-color="#EE228C"/>

</linearGradient>

<linearGradient id="paint1_linear_12_2353" x1="3.85714" y1="3.50496" x2="16.9156" y2="16.4039" gradientUnits="userSpaceOnUse">

<stop stop-color="#83D6E0"/>

<stop offset="1" stop-color="#EE228C"/>

</linearGradient>

</defs>

</svg>


