

<svg width="17" height="15" viewBox="0 0 17 15" fill="none" xmlns="http://www.w3.org/2000/svg">

<path d="M16.3321 5.13C15.9055 4.13195 15.2869 3.2252 14.5107 2.46C13.7364 1.69295 12.8189 1.08166 11.8089 0.66C10.7597 0.22125 9.64788 0 8.5 0C7.35212 0 6.24029 0.22125 5.19107 0.66C4.18114 1.08166 3.26359 1.69295 2.48929 2.46C1.71311 3.2252 1.09453 4.13195 0.667857 5.13C0.223884 6.16688 0 7.26563 0 8.4C0 10.8881 1.10614 13.2319 3.03382 14.8331L3.06607 14.8594C3.17612 14.9494 3.31462 15 3.45692 15H13.545C13.6873 15 13.8258 14.9494 13.9358 14.8594L13.9681 14.8331C15.8939 13.2319 17 10.8881 17 8.4C17 7.26563 16.7742 6.16688 16.3321 5.13ZM7.9308 2.25C7.9308 2.1675 7.99911 2.1 8.08259 2.1H8.91741C9.00089 2.1 9.0692 2.1675 9.0692 2.25V3.75C9.0692 3.8325 9.00089 3.9 8.91741 3.9H8.08259C7.99911 3.9 7.9308 3.8325 7.9308 3.75V2.25ZM3.90848 8.8125C3.90848 8.895 3.84018 8.9625 3.7567 8.9625H2.23884C2.15536 8.9625 2.08705 8.895 2.08705 8.8125V7.9875C2.08705 7.905 2.15536 7.8375 2.23884 7.8375H3.7567C3.84018 7.8375 3.90848 7.905 3.90848 7.9875V8.8125ZM5.62935 4.97813L5.03929 5.56125C5.01076 5.58917 4.97223 5.60483 4.93209 5.60483C4.89194 5.60483 4.85342 5.58917 4.82489 5.56125L3.751 4.5C3.72276 4.47181 3.70691 4.43374 3.70691 4.39406C3.70691 4.35439 3.72276 4.31632 3.751 4.28813L4.34107 3.705C4.39989 3.64688 4.49665 3.64688 4.55547 3.705L5.62935 4.76625C5.68817 4.82438 5.68817 4.92 5.62935 4.97813ZM11.1525 6.54563L9.54922 8.13C9.64408 8.48063 9.55301 8.86875 9.27411 9.14438C9.17551 9.242 9.05839 9.31945 8.92947 9.3723C8.80055 9.42514 8.66234 9.45234 8.52277 9.45234C8.38319 9.45234 8.24499 9.42514 8.11607 9.3723C7.98714 9.31945 7.87003 9.242 7.77143 9.14438C7.67264 9.04694 7.59427 8.9312 7.5408 8.80379C7.48732 8.67638 7.4598 8.53981 7.4598 8.40187C7.4598 8.26394 7.48732 8.12737 7.5408 7.99996C7.59427 7.87255 7.67264 7.75682 7.77143 7.65938C7.90317 7.52879 8.06746 7.43488 8.24769 7.38715C8.42792 7.33941 8.61771 7.33953 8.79788 7.3875L10.4011 5.80313C10.4599 5.745 10.5567 5.745 10.6155 5.80313L11.1525 6.33375C11.2113 6.39187 11.2113 6.48563 11.1525 6.54563ZM11.9683 5.56313L11.3782 4.98C11.35 4.95181 11.3341 4.91374 11.3341 4.87406C11.3341 4.83439 11.35 4.79632 11.3782 4.76813L12.4521 3.70688C12.5109 3.64875 12.6077 3.64875 12.6665 3.70688L13.2566 4.29C13.3154 4.34812 13.3154 4.44375 13.2566 4.50188L12.1827 5.56313C12.1542 5.59104 12.1156 5.6067 12.0755 5.6067C12.0354 5.6067 11.9968 5.59104 11.9683 5.56313ZM14.8371 8.8125C14.8371 8.895 14.7688 8.9625 14.6853 8.9625H13.1674C13.0839 8.9625 13.0156 8.895 13.0156 8.8125V7.9875C13.0156 7.905 13.0839 7.8375 13.1674 7.8375H14.6853C14.7688 7.8375 14.8371 7.905 14.8371 7.9875V8.8125Z" fill="#9D9DAD"/>

</svg>


