

<svg width="12" height="12" viewBox="0 0 12 12" fill="none" xmlns="http://www.w3.org/2000/svg">

<path d="M2.625 0C2.72446 0 2.81984 0.0395088 2.89016 0.109835C2.96049 0.180161 3 0.275544 3 0.375V0.75H9V0.375C9 0.275544 9.03951 0.180161 9.10983 0.109835C9.18016 0.0395088 9.27554 0 9.375 0C9.47446 0 9.56984 0.0395088 9.64017 0.109835C9.71049 0.180161 9.75 0.275544 9.75 0.375V0.75H10.5C10.8978 0.75 11.2794 0.908035 11.5607 1.18934C11.842 1.47064 12 1.85218 12 2.25V10.5C12 10.8978 11.842 11.2794 11.5607 11.5607C11.2794 11.842 10.8978 12 10.5 12H1.5C1.10218 12 0.720644 11.842 0.43934 11.5607C0.158035 11.2794 0 10.8978 0 10.5V2.25C0 1.85218 0.158035 1.47064 0.43934 1.18934C0.720644 0.908035 1.10218 0.75 1.5 0.75H2.25V0.375C2.25 0.275544 2.28951 0.180161 2.35984 0.109835C2.43016 0.0395088 2.52554 0 2.625 0ZM10.0905 2.25H1.90875C1.68375 2.25 1.5 2.418 1.5 2.625V3.375C1.5 3.582 1.683 3.75 1.90875 3.75H10.0912C10.3162 3.75 10.5 3.582 10.5 3.375V2.625C10.5 2.418 10.317 2.25 10.0905 2.25ZM7.5 5.25C7.30109 5.25 7.11032 5.32902 6.96967 5.46967C6.82902 5.61032 6.75 5.80109 6.75 6C6.75 6.19891 6.82902 6.38968 6.96967 6.53033C7.11032 6.67098 7.30109 6.75 7.5 6.75H11.25V5.25H7.5ZM4.5 8.25C4.5 8.05109 4.42098 7.86032 4.28033 7.71967C4.13968 7.57902 3.94891 7.5 3.75 7.5H0.75V9H3.75C3.94891 9 4.13968 8.92098 4.28033 8.78033C4.42098 8.63968 4.5 8.44891 4.5 8.25Z" fill="#7C7C91"/>

</svg>


