<svg width="14" height="18" viewBox="0 0 14 18" fill="none" xmlns="http://www.w3.org/2000/svg">
<g opacity="0.5" clip-path="url(#clip0_1_396)">
<path d="M4.75211 2.85032L5.04261 1.71947C5.12529 1.39682 5.37554 1.14662 5.69098 1.07012C6.12848 0.963924 6.56423 0.906324 6.99998 0.900024C7.43573 0.906324 7.87148 0.963924 8.30854 1.07012C8.62442 1.14707 8.87423 1.39727 8.95692 1.71947L9.24742 2.85032C9.32092 3.13562 9.11136 3.41552 8.82436 3.41552H5.17429C4.88817 3.41552 4.67861 3.13607 4.75211 2.85032Z" fill="white"/>
<path d="M10.5131 2.448H9.95875L10.0091 2.64375C10.1071 3.02445 10.0292 3.4218 9.79557 3.7341C9.56194 4.0464 9.208 4.2255 8.82475 4.2255H5.17513C4.79188 4.2255 4.43794 4.0464 4.20432 3.7341C3.97069 3.4218 3.89282 3.024 3.99082 2.6433L4.04113 2.448H3.48682C2.51994 2.448 1.73682 3.2535 1.73682 4.248V11.7C1.73682 12.6945 2.51994 13.5 3.48682 13.5H10.5131C11.4799 13.5 12.2631 12.6945 12.2631 11.7V4.248C12.2631 3.2535 11.4799 2.448 10.5131 2.448ZM4.70044 10.8859H4.20125C3.98382 10.8859 3.8075 10.7046 3.8075 10.4809C3.8075 10.2573 3.98382 10.0759 4.20125 10.0759H4.70088C4.91832 10.0759 5.09463 10.2573 5.09463 10.4809C5.09463 10.7046 4.91788 10.8859 4.70044 10.8859ZM4.70044 8.86275H4.20125C3.98382 8.86275 3.8075 8.6814 3.8075 8.45775C3.8075 8.2341 3.98382 8.05275 4.20125 8.05275H4.70088C4.91832 8.05275 5.09463 8.2341 5.09463 8.45775C5.09463 8.6814 4.91788 8.86275 4.70044 8.86275ZM4.70044 6.8391H4.20125C3.98382 6.8391 3.8075 6.65775 3.8075 6.4341C3.8075 6.21045 3.98382 6.0291 4.20125 6.0291H4.70088C4.91832 6.0291 5.09463 6.21045 5.09463 6.4341C5.09463 6.65775 4.91788 6.8391 4.70044 6.8391ZM9.79863 10.8859H6.27063C6.05319 10.8859 5.87688 10.7046 5.87688 10.4809C5.87688 10.2573 6.05319 10.0759 6.27063 10.0759H9.79863C10.0161 10.0759 10.1924 10.2573 10.1924 10.4809C10.1924 10.7046 10.0165 10.8859 9.79863 10.8859ZM9.79863 8.86275H6.27063C6.05319 8.86275 5.87688 8.6814 5.87688 8.45775C5.87688 8.2341 6.05319 8.05275 6.27063 8.05275H9.79863C10.0161 8.05275 10.1924 8.2341 10.1924 8.45775C10.1924 8.6814 10.0165 8.86275 9.79863 8.86275ZM9.79863 6.8391H6.27063C6.05319 6.8391 5.87688 6.65775 5.87688 6.4341C5.87688 6.21045 6.05319 6.0291 6.27063 6.0291H9.79863C10.0161 6.0291 10.1924 6.21045 10.1924 6.4341C10.1924 6.65775 10.0165 6.8391 9.79863 6.8391Z" fill="white"/>
</g>
<defs>
<clipPath id="clip0_1_396">
<rect width="14" height="18" fill="white"/>
</clipPath>
</defs>
</svg>
