

<svg width="13" height="15" viewBox="0 0 13 15" fill="none" xmlns="http://www.w3.org/2000/svg">

<path fill-rule="evenodd" clip-rule="evenodd" d="M6.5338 0H6.4662C5.88185 0 5.395 3.23158e-08 5.0089 0.0578314C4.6007 0.118554 4.23215 0.253012 3.9364 0.581928C3.64 0.911566 3.5191 1.32145 3.4645 1.7747C3.42745 2.08337 3.4164 2.82 3.4138 3.45181C2.0995 3.50024 1.30975 3.67084 0.7618 4.28096C-7.7486e-08 5.12747 0 6.49084 0 9.21687C0 11.9429 -7.7486e-08 13.3063 0.7618 14.1528C1.5236 14.9993 2.74885 15 5.2 15H7.8C10.2511 15 11.477 15 12.2382 14.1528C12.9993 13.3055 13 11.9429 13 9.21687C13 6.49084 13 5.12747 12.2382 4.28096C11.6902 3.67084 10.9005 3.50024 9.5862 3.45253C9.5836 2.82 9.5732 2.08337 9.5355 1.77542C9.4809 1.32145 9.36 0.911566 9.0636 0.582651C8.76785 0.253012 8.3993 0.118554 7.9911 0.0578314C7.605 3.23158e-08 7.1175 0 6.5338 0ZM8.6112 3.43518C8.60795 2.82289 8.59885 2.16434 8.5696 1.91928C8.52865 1.58602 8.4591 1.44289 8.3746 1.34892C8.2901 1.25494 8.1614 1.17759 7.8611 1.13205C7.5478 1.08578 7.1266 1.08434 6.5 1.08434C5.8734 1.08434 5.4522 1.08578 5.13825 1.13277C4.8386 1.17759 4.7099 1.25494 4.6254 1.34964C4.5409 1.44434 4.47135 1.58602 4.4304 1.91928C4.40115 2.16506 4.3914 2.82289 4.3888 3.43518C4.6436 3.43373 4.914 3.43325 5.2 3.43373H7.8C8.08687 3.43373 8.35727 3.43422 8.6112 3.43518ZM6.5 5.78313C6.62929 5.78313 6.75329 5.84025 6.84471 5.94193C6.93614 6.04361 6.9875 6.18151 6.9875 6.3253V6.33253C7.69535 6.5306 8.2875 7.15157 8.2875 8.01181C8.2875 8.1556 8.23614 8.2935 8.14471 8.39518C8.05329 8.49685 7.92929 8.55398 7.8 8.55398C7.67071 8.55398 7.54671 8.49685 7.45529 8.39518C7.36386 8.2935 7.3125 8.1556 7.3125 8.01181C7.3125 7.73422 7.0356 7.34964 6.5 7.34964C5.9644 7.34964 5.6875 7.73422 5.6875 8.01181C5.6875 8.2894 5.9644 8.6747 6.5 8.6747C7.40025 8.6747 8.2875 9.36867 8.2875 10.4219C8.2875 11.2822 7.69535 11.9024 6.9875 12.1012V12.1084C6.9875 12.2522 6.93614 12.3901 6.84471 12.4918C6.75329 12.5935 6.62929 12.6506 6.5 12.6506C6.37071 12.6506 6.24671 12.5935 6.15529 12.4918C6.06386 12.3901 6.0125 12.2522 6.0125 12.1084V12.1012C5.30465 11.9031 4.7125 11.2822 4.7125 10.4219C4.7125 10.2781 4.76386 10.1402 4.85529 10.0386C4.94671 9.93688 5.07071 9.87976 5.2 9.87976C5.32929 9.87976 5.45329 9.93688 5.54471 10.0386C5.63614 10.1402 5.6875 10.2781 5.6875 10.4219C5.6875 10.6995 5.9644 11.0841 6.5 11.0841C7.0356 11.0841 7.3125 10.6995 7.3125 10.4219C7.3125 10.1443 7.0356 9.75904 6.5 9.75904C5.59975 9.75904 4.7125 9.06506 4.7125 8.01181C4.7125 7.15157 5.30465 6.5306 6.0125 6.33253V6.3253C6.0125 6.18151 6.06386 6.04361 6.15529 5.94193C6.24671 5.84025 6.37071 5.78313 6.5 5.78313Z" fill="#3ECED2"/>

</svg>


