<svg width="14" height="13" viewBox="0 0 14 13" fill="none" xmlns="http://www.w3.org/2000/svg">
<path d="M5.62729 10.4474C4.61483 10.4521 3.62377 10.1688 2.77966 9.63361C1.93556 9.09845 1.2764 8.33534 0.885828 7.44112C0.495165 6.54692 0.390715 5.5618 0.585629 4.61055C0.780543 3.6593 1.266 2.78508 1.9805 2.09828C2.69507 1.41157 3.60651 0.943425 4.59922 0.753142C5.59193 0.562939 6.62139 0.659152 7.55701 1.02961C8.49259 1.40016 9.29228 2.02816 9.85446 2.83428C10.4167 3.64031 10.7164 4.58805 10.7155 5.55727C10.7158 6.85103 10.1804 8.09207 9.22673 9.00864C8.27303 9.9252 6.97876 10.4425 5.62729 10.4472V10.4474ZM5.62729 1.60581C4.81025 1.60112 4.01004 1.82882 3.3283 2.25996C2.64645 2.69117 2.11374 3.30644 1.79764 4.02779C1.48145 4.74913 1.39616 5.54405 1.5525 6.31186C1.70883 7.07966 2.09975 7.78579 2.67576 8.3406C3.25169 8.89549 3.98679 9.27418 4.78787 9.4287C5.58885 9.58313 6.41981 9.50649 7.17525 9.2084C7.9307 8.91023 8.57673 8.40417 9.03138 7.75413C9.48603 7.10417 9.72895 6.33958 9.72919 5.55721C9.73142 4.51279 9.30083 3.51022 8.53189 2.76938C7.76285 2.02856 6.71827 1.61008 5.62731 1.60572L5.62729 1.60581Z" fill="#9CACB7"/>
<path d="M12.2959 12.3422L8.73645 9.19953L9.46506 8.55273L13.0246 11.6942L12.2959 12.3422Z" fill="#9CACB7"/>
</svg>
