<svg width="13" height="13" viewBox="0 0 13 13" fill="none" xmlns="http://www.w3.org/2000/svg">
<path d="M5.1373 10.1531C4.12484 10.1578 3.13378 9.87447 2.28967 9.3393C1.44557 8.80414 0.786414 8.04102 0.395838 7.1468C0.00517482 6.25261 -0.0992748 5.26749 0.0956391 4.31624C0.290553 3.36499 0.776013 2.49077 1.49051 1.80397C2.20508 1.11725 3.11652 0.649114 4.10923 0.45883C5.10194 0.268627 6.13139 0.36484 7.06702 0.735298C8.0026 1.10584 8.80229 1.73385 9.36447 2.53997C9.92674 3.346 10.2264 4.29373 10.2255 5.26296C10.2258 6.55671 9.69044 7.79775 8.73674 8.71433C7.78304 9.63089 6.48877 10.1482 5.1373 10.1529V10.1531ZM5.1373 1.31149C4.32026 1.30681 3.52005 1.53451 2.83831 1.96564C2.15646 2.39686 1.62375 3.01213 1.30765 3.73347C0.991465 4.45482 0.906168 5.24974 1.06251 6.01755C1.21884 6.78535 1.60976 7.49148 2.18577 8.04629C2.7617 8.60118 3.4968 8.97987 4.29788 9.13439C5.09886 9.28882 5.92982 9.21218 6.68526 8.91409C7.44071 8.61592 8.08673 8.10986 8.54139 7.45982C8.99604 6.80986 9.23896 6.04527 9.2392 5.2629C9.24143 4.21848 8.81084 3.21591 8.0419 2.47507C7.27286 1.73425 6.22828 1.31577 5.13732 1.31141L5.1373 1.31149Z" fill="white"/>
<path d="M11.806 12.0479L8.24646 8.90519L8.97507 8.25839L12.5346 11.3998L11.806 12.0479Z" fill="white"/>
</svg>
