<svg width="14" height="16" viewBox="0 0 14 16" fill="none" xmlns="http://www.w3.org/2000/svg">
<path d="M1.07915 4.2333C0.9365 4.18765 0.780816 4.19812 0.646192 4.26241C0.511568 4.3267 0.408977 4.43958 0.360886 4.57632C0.12048 5.26444 -0.00141116 5.98558 1.23251e-05 6.71135C1.23251e-05 6.84354 1.24383e-05 6.9774 0.0122159 7.10958C0.0122159 7.12799 0.0122159 7.14639 0.0122159 7.1648V9.18104C-0.0024315 10.0714 0.167636 10.9557 0.512516 11.7823C0.857395 12.609 1.37019 13.3616 2.02105 13.9962C2.6719 14.6308 3.44781 15.1348 4.30357 15.4788C5.15934 15.8228 6.07787 16 7.00567 16C7.93347 16 8.852 15.8228 9.70777 15.4788C10.5635 15.1348 11.3394 14.6308 11.9903 13.9962C12.6411 13.3616 13.1539 12.609 13.4988 11.7823C13.8437 10.9557 14.0138 10.0714 13.9991 9.18104V7.1648C13.9995 7.12019 13.9936 7.07574 13.9817 7.03261C13.9817 6.92553 13.9817 6.81844 13.9817 6.71135C13.9817 5.35099 13.551 4.02274 12.7466 2.90265C11.9423 1.78256 10.8022 0.923524 9.47766 0.439391C8.15308 -0.0447412 6.70648 -0.131107 5.3296 0.191741C3.95271 0.514589 2.71056 1.23141 1.76777 2.24718C1.71821 2.30058 1.68008 2.36282 1.65558 2.43036C1.63108 2.49789 1.62067 2.5694 1.62496 2.64079C1.63363 2.78498 1.70161 2.91996 1.81397 3.01603C1.92632 3.11211 2.07384 3.16141 2.22407 3.1531C2.3743 3.14478 2.51494 3.07953 2.61504 2.97169C3.57575 1.94249 4.90017 1.29201 6.33188 1.14619C7.7636 1.00038 9.20076 1.36959 10.3651 2.18236C11.5295 2.99512 12.3383 4.19363 12.6348 5.54583C12.9314 6.89804 12.6946 8.30776 11.9705 9.50206C11.2463 10.6964 10.0861 11.5903 8.71468 12.0108C7.34321 12.4313 5.85796 12.3485 4.54648 11.7783C3.235 11.2082 2.19058 10.1912 1.61542 8.92446C1.04026 7.65768 0.975274 6.23113 1.43305 4.921C1.45689 4.85355 1.46665 4.78224 1.46176 4.71116C1.45688 4.64009 1.43745 4.57063 1.40458 4.50676C1.37172 4.4429 1.32606 4.38587 1.27022 4.33895C1.21438 4.29203 1.14945 4.25613 1.07915 4.2333ZM4.27122 12.8956C5.55361 13.417 6.96908 13.5585 8.3359 13.3021C9.70272 13.0457 10.9585 12.403 11.942 11.4566C12.205 11.2042 12.4469 10.9323 12.6655 10.6434C12.331 11.8344 11.5979 12.8869 10.5791 13.6388C9.56031 14.3907 8.31226 14.8004 7.02708 14.8047C5.7419 14.8091 4.49085 14.4079 3.46651 13.663C2.44218 12.918 1.70135 11.8706 1.35808 10.6819C1.56987 10.9566 1.80298 11.2156 2.05542 11.4566C2.68977 12.0697 3.44236 12.5584 4.27122 12.8956ZM7.99502 8.07671C7.99456 7.83144 7.89284 7.59634 7.71214 7.42291C7.53145 7.24948 7.2865 7.15185 7.03095 7.15141C6.51639 7.16412 6.015 6.99432 5.6227 6.67448C5.23041 6.35463 4.97474 5.90721 4.9046 5.41779C4.83447 4.92836 4.95479 4.43131 5.24256 4.02169C5.53032 3.61208 5.96533 3.31866 6.46436 3.19758V2.6086C6.46436 2.46438 6.52406 2.32606 6.63031 2.22408C6.73657 2.1221 6.88068 2.0648 7.03095 2.0648C7.18122 2.0648 7.32533 2.1221 7.43159 2.22408C7.53785 2.32606 7.59754 2.46438 7.59754 2.6086V3.17248C8.11145 3.28212 8.5634 3.57369 8.86321 3.98901C8.94875 4.10772 8.98165 4.25418 8.95468 4.39617C8.92771 4.53816 8.84307 4.66405 8.71939 4.74615C8.5957 4.82825 8.44311 4.85982 8.29517 4.83394C8.14722 4.80805 8.01606 4.72682 7.93052 4.60811C7.84198 4.48525 7.72371 4.38483 7.58586 4.31547C7.44801 4.24611 7.29468 4.20988 7.13904 4.20988H7.03095C6.90078 4.20457 6.77084 4.22459 6.64894 4.26874C6.52704 4.31288 6.41571 4.38025 6.32165 4.46677C6.22759 4.55329 6.15274 4.65719 6.1016 4.7722C6.05047 4.88721 6.02411 5.01096 6.02411 5.13601C6.02411 5.26106 6.05047 5.38481 6.1016 5.49982C6.15274 5.61484 6.22759 5.71873 6.32165 5.80525C6.41571 5.89177 6.52704 5.95914 6.64894 6.00328C6.77084 6.04743 6.90078 6.06745 7.03095 6.06214C7.54551 6.04943 8.0469 6.21923 8.4392 6.53908C8.83149 6.85892 9.08716 7.30635 9.1573 7.79577C9.22743 8.28519 9.10711 8.78225 8.81934 9.19186C8.53158 9.60148 8.09657 9.89489 7.59754 10.016V10.605C7.59754 10.7492 7.53785 10.8875 7.43159 10.9895C7.32533 11.0915 7.18122 11.1488 7.03095 11.1488C6.88068 11.1488 6.73657 11.0915 6.63031 10.9895C6.52406 10.8875 6.46436 10.7492 6.46436 10.605V10.0427C6.13637 9.97271 5.83079 9.82788 5.57345 9.62052C5.31612 9.41315 5.11462 9.14934 4.986 8.85141L4.97554 8.82798C4.91774 8.69485 4.91742 8.54514 4.97463 8.41178C5.03185 8.27842 5.14192 8.17233 5.28063 8.11686C5.41934 8.06139 5.57532 8.06108 5.71427 8.11599C5.85322 8.17091 5.96375 8.27655 6.02155 8.40968L6.03201 8.4331C6.1049 8.60222 6.22849 8.74674 6.3871 8.84832C6.5457 8.94991 6.73218 9.00398 6.92286 9.00367H7.03095C7.2868 9.00323 7.53201 8.90537 7.71276 8.73158C7.89351 8.55779 7.99502 8.32226 7.99502 8.07671Z" fill="#BBC3CE"/>
</svg>
