<svg width="14" height="14" viewBox="0 0 14 14" fill="none" xmlns="http://www.w3.org/2000/svg">
<path d="M8.4 4.9H5.6C5.41435 4.9 5.2363 4.97375 5.10503 5.10503C4.97375 5.2363 4.9 5.41435 4.9 5.6V8.4C4.9 8.58565 4.97375 8.7637 5.10503 8.89497C5.2363 9.02625 5.41435 9.1 5.6 9.1H8.4C8.58565 9.1 8.7637 9.02625 8.89497 8.89497C9.02625 8.7637 9.1 8.58565 9.1 8.4V5.6C9.1 5.41435 9.02625 5.2363 8.89497 5.10503C8.7637 4.97375 8.58565 4.9 8.4 4.9ZM7.7 7.7H6.3V6.3H7.7V7.7ZM13.3 7.7C13.4857 7.7 13.6637 7.62625 13.795 7.49497C13.9263 7.3637 14 7.18565 14 7C14 6.81435 13.9263 6.6363 13.795 6.50503C13.6637 6.37375 13.4857 6.3 13.3 6.3H11.9V4.9H13.3C13.4857 4.9 13.6637 4.82625 13.795 4.69497C13.9263 4.5637 14 4.38565 14 4.2C14 4.01435 13.9263 3.8363 13.795 3.70503C13.6637 3.57375 13.4857 3.5 13.3 3.5H11.774C11.6695 3.20642 11.5009 2.93979 11.2806 2.71943C11.0602 2.49907 10.7936 2.33052 10.5 2.226V0.7C10.5 0.514348 10.4263 0.336301 10.295 0.205025C10.1637 0.0737498 9.98565 0 9.8 0C9.61435 0 9.4363 0.0737498 9.30503 0.205025C9.17375 0.336301 9.1 0.514348 9.1 0.7V2.1H7.7V0.7C7.7 0.514348 7.62625 0.336301 7.49497 0.205025C7.3637 0.0737498 7.18565 0 7 0C6.81435 0 6.6363 0.0737498 6.50503 0.205025C6.37375 0.336301 6.3 0.514348 6.3 0.7V2.1H4.9V0.7C4.9 0.514348 4.82625 0.336301 4.69497 0.205025C4.5637 0.0737498 4.38565 0 4.2 0C4.01435 0 3.8363 0.0737498 3.70503 0.205025C3.57375 0.336301 3.5 0.514348 3.5 0.7V2.226C3.20642 2.33052 2.93979 2.49907 2.71943 2.71943C2.49907 2.93979 2.33052 3.20642 2.226 3.5H0.7C0.514348 3.5 0.336301 3.57375 0.205025 3.70503C0.0737498 3.8363 0 4.01435 0 4.2C0 4.38565 0.0737498 4.5637 0.205025 4.69497C0.336301 4.82625 0.514348 4.9 0.7 4.9H2.1V6.3H0.7C0.514348 6.3 0.336301 6.37375 0.205025 6.50503C0.0737498 6.6363 0 6.81435 0 7C0 7.18565 0.0737498 7.3637 0.205025 7.49497C0.336301 7.62625 0.514348 7.7 0.7 7.7H2.1V9.1H0.7C0.514348 9.1 0.336301 9.17375 0.205025 9.30503C0.0737498 9.4363 0 9.61435 0 9.8C0 9.98565 0.0737498 10.1637 0.205025 10.295C0.336301 10.4263 0.514348 10.5 0.7 10.5H2.226C2.33052 10.7936 2.49907 11.0602 2.71943 11.2806C2.93979 11.5009 3.20642 11.6695 3.5 11.774V13.3C3.5 13.4857 3.57375 13.6637 3.70503 13.795C3.8363 13.9263 4.01435 14 4.2 14C4.38565 14 4.5637 13.9263 4.69497 13.795C4.82625 13.6637 4.9 13.4857 4.9 13.3V11.9H6.3V13.3C6.3 13.4857 6.37375 13.6637 6.50503 13.795C6.6363 13.9263 6.81435 14 7 14C7.18565 14 7.3637 13.9263 7.49497 13.795C7.62625 13.6637 7.7 13.4857 7.7 13.3V11.9H9.1V13.3C9.1 13.4857 9.17375 13.6637 9.30503 13.795C9.4363 13.9263 9.61435 14 9.8 14C9.98565 14 10.1637 13.9263 10.295 13.795C10.4263 13.6637 10.5 13.4857 10.5 13.3V11.774C10.7936 11.6695 11.0602 11.5009 11.2806 11.2806C11.5009 11.0602 11.6695 10.7936 11.774 10.5H13.3C13.4857 10.5 13.6637 10.4263 13.795 10.295C13.9263 10.1637 14 9.98565 14 9.8C14 9.61435 13.9263 9.4363 13.795 9.30503C13.6637 9.17375 13.4857 9.1 13.3 9.1H11.9V7.7H13.3ZM10.5 9.8C10.5 9.98565 10.4263 10.1637 10.295 10.295C10.1637 10.4263 9.98565 10.5 9.8 10.5H4.2C4.01435 10.5 3.8363 10.4263 3.70503 10.295C3.57375 10.1637 3.5 9.98565 3.5 9.8V4.2C3.5 4.01435 3.57375 3.8363 3.70503 3.70503C3.8363 3.57375 4.01435 3.5 4.2 3.5H9.8C9.98565 3.5 10.1637 3.57375 10.295 3.70503C10.4263 3.8363 10.5 4.01435 10.5 4.2V9.8Z" fill="#46597E"/>
</svg>
