<svg width="14" height="15" viewBox="0 0 14 15" fill="none" xmlns="http://www.w3.org/2000/svg">
<path d="M11.9317 2.05587C10.6038 0.733461 8.84699 0.0012207 6.98634 0.0012207C5.12841 0.0012207 3.37705 0.736193 2.05191 2.0586C0.729508 3.381 0 5.14056 0 6.99849C0 8.85914 0.726776 10.616 2.04918 11.9466C3.37705 13.2799 5.12841 14.0176 6.98634 14.0176C7.92623 14.0176 8.8388 13.8264 9.70492 13.4575C10.5383 13.1023 11.2869 12.5887 11.9344 11.9438C12.582 11.299 13.0874 10.5477 13.4426 9.71433C13.8115 8.84821 14 7.93291 14 6.99576C14 5.1351 13.265 3.381 11.9317 2.05587ZM11.1612 11.1706C10.0355 12.2963 8.55464 12.9165 6.98634 12.9165C3.7377 12.9165 1.0929 10.2608 1.0929 6.99576C1.0929 5.43018 1.70765 3.95204 2.82514 2.83455C3.94262 1.71707 5.41803 1.10231 6.98634 1.10231C10.2514 1.10231 12.9071 3.74439 12.9071 6.99576C12.9071 8.56133 12.2869 10.0449 11.1612 11.1706Z" fill="#A2ABBE"/>
<path d="M7.5601 5.58592V2.26898C7.5601 1.96844 7.3142 1.72253 7.01365 1.72253C6.7131 1.72253 6.4672 1.96844 6.4672 2.26898V5.57499C5.89343 5.79084 5.48633 6.34275 5.48633 6.99029C5.48633 7.82363 6.16392 8.50395 6.99999 8.50395C7.83605 8.50395 8.51365 7.82636 8.51365 6.99029C8.51365 6.35368 8.11748 5.80997 7.5601 5.58592ZM6.99999 7.41106C6.76775 7.41106 6.57922 7.22253 6.57922 6.99029C6.57922 6.75805 6.76775 6.56953 6.99999 6.56953C7.23223 6.56953 7.42075 6.75805 7.42075 6.99029C7.42075 7.22253 7.23223 7.41106 6.99999 7.41106Z" fill="#A2ABBE"/>
<path d="M3.27077 6.44934H2.69692C2.39633 6.44934 2.15039 6.69528 2.15039 6.99587C2.15039 7.29646 2.39633 7.5424 2.69692 7.5424H3.27077C3.57136 7.5424 3.8173 7.29646 3.8173 6.99587C3.8173 6.69528 3.57136 6.44934 3.27077 6.44934Z" fill="#A2ABBE"/>
<path d="M10.5385 6.44934C10.2379 6.44934 9.99194 6.69528 9.99194 6.99587C9.99194 7.29646 10.2379 7.5424 10.5385 7.5424H11.1123C11.4129 7.5424 11.6589 7.29646 11.6589 6.99587C11.6589 6.69528 11.4129 6.44934 11.1123 6.44934H10.5385Z" fill="#A2ABBE"/>
<path d="M10.2844 3.31542C10.0521 3.1214 9.70777 3.1542 9.51375 3.38647L9.14757 3.82916C8.95356 4.06143 8.98635 4.40574 9.21862 4.59976C9.31973 4.68447 9.44543 4.72546 9.5684 4.72546C9.72416 4.72546 9.88265 4.65715 9.98923 4.52871L10.3554 4.08603C10.5494 3.85375 10.5166 3.50944 10.2844 3.31542Z" fill="#A2ABBE"/>
<path d="M4.36069 3.41662C4.16667 3.18435 3.82236 3.15155 3.59008 3.34557C3.35781 3.53959 3.32502 3.8839 3.51903 4.11618L3.88521 4.55886C3.99451 4.69003 4.15027 4.75561 4.30603 4.75561C4.429 4.75561 4.55197 4.71462 4.65581 4.62991C4.88809 4.4359 4.92088 4.09158 4.72686 3.85931L4.36069 3.41662Z" fill="#A2ABBE"/>
</svg>
