

<svg width="15" height="15" viewBox="0 0 15 15" fill="none" xmlns="http://www.w3.org/2000/svg">

<path d="M5.28057 4.9246L6.96957 1.3448C7.01873 1.2412 7.09435 1.15407 7.18794 1.09316C7.28152 1.03226 7.38938 1 7.49941 1C7.60945 1 7.7173 1.03226 7.81089 1.09316C7.90448 1.15407 7.98009 1.2412 8.02926 1.3448L9.71826 4.9246L13.4941 5.50207C13.603 5.51797 13.7055 5.56577 13.7899 5.64002C13.8742 5.71427 13.937 5.81198 13.9711 5.92199C14.0052 6.03201 14.0092 6.14989 13.9827 6.2622C13.9562 6.3745 13.9002 6.4767 13.8211 6.55713L11.0894 9.34187L11.7343 13.2761C11.8168 13.781 11.3097 14.1656 10.8761 13.9275L7.49941 12.0691L4.12206 13.9275C3.68908 14.1662 3.18199 13.781 3.26456 13.2754L3.90947 9.34118L1.17768 6.55644C1.09901 6.47596 1.04337 6.37387 1.01708 6.26176C0.990793 6.14966 0.994916 6.03204 1.02898 5.92228C1.06304 5.81252 1.12568 5.71501 1.20978 5.64085C1.29387 5.56669 1.39605 5.51885 1.50469 5.50276L5.28057 4.9246Z" stroke="#7C7C91" stroke-width="1.5" stroke-linecap="round" stroke-linejoin="round"/>

</svg>


