

<svg width="12" height="12" viewBox="0 0 12 12" fill="none" xmlns="http://www.w3.org/2000/svg">

<path d="M5.50278 0C5.98009 0.00010194 6.43782 0.189797 6.77528 0.52736L11.4009 5.15301C11.7845 5.53666 12 6.05697 12 6.59949C12 7.14202 11.7845 7.66233 11.4009 8.04598L8.04598 11.4009C7.66233 11.7845 7.14202 12 6.59949 12C6.05697 12 5.53666 11.7845 5.15301 11.4009L0.52736 6.77528C0.189797 6.43782 0.00010194 5.98009 0 5.50278V2.39982C0 1.76335 0.252837 1.15294 0.70289 0.70289C1.15294 0.252837 1.76335 0 2.39982 0H5.50278ZM3.29975 2.09984C2.99702 2.09974 2.70545 2.21407 2.48348 2.41991C2.26151 2.62575 2.12554 2.90788 2.10284 3.20975L2.09984 3.29975C2.09984 3.53707 2.17021 3.76906 2.30206 3.96638C2.43391 4.1637 2.62131 4.3175 2.84056 4.40832C3.05982 4.49914 3.30108 4.5229 3.53384 4.4766C3.7666 4.4303 3.9804 4.31602 4.14821 4.14821C4.31602 3.9804 4.4303 3.7666 4.4766 3.53384C4.5229 3.30108 4.49914 3.05982 4.40832 2.84056C4.3175 2.62131 4.1637 2.43391 3.96638 2.30206C3.76906 2.17021 3.53707 2.09984 3.29975 2.09984Z" fill="#7C7C91"/>

</svg>


