<svg width="14" height="13" viewBox="0 0 14 13" fill="none" xmlns="http://www.w3.org/2000/svg">
<path d="M7 6.36364C6.62242 6.36364 6.25331 6.4756 5.93937 6.68538C5.62542 6.89515 5.38072 7.19331 5.23623 7.54215C5.09174 7.89099 5.05393 8.27485 5.12759 8.64517C5.20125 9.0155 5.38308 9.35567 5.65007 9.62266C5.91706 9.88965 6.25723 10.0715 6.62755 10.1451C6.99788 10.2188 7.38174 10.181 7.73058 10.0365C8.07942 9.892 8.37758 9.64731 8.58735 9.33336C8.79712 9.01941 8.90909 8.65031 8.90909 8.27273C8.90909 7.7664 8.70796 7.28082 8.34993 6.9228C7.99191 6.56477 7.50632 6.36364 7 6.36364ZM7 8.90909C6.87414 8.90909 6.7511 8.87177 6.64645 8.80184C6.54181 8.73192 6.46024 8.63253 6.41208 8.51625C6.36391 8.39997 6.35131 8.27202 6.37586 8.14858C6.40042 8.02514 6.46103 7.91175 6.55002 7.82275C6.63902 7.73375 6.75241 7.67315 6.87585 7.64859C6.99929 7.62404 7.12725 7.63664 7.24353 7.6848C7.35981 7.73297 7.45919 7.81453 7.52912 7.91918C7.59904 8.02383 7.63636 8.14687 7.63636 8.27273C7.63636 8.4415 7.56932 8.60336 7.44998 8.7227C7.33064 8.84205 7.16877 8.90909 7 8.90909ZM6.54818 4.90636C6.6087 4.9643 6.68007 5.00971 6.75818 5.04C6.83435 5.07367 6.91672 5.09106 7 5.09106C7.08328 5.09106 7.16565 5.07367 7.24182 5.04C7.31993 5.00971 7.3913 4.9643 7.45182 4.90636L8.90909 3.47455C9.0323 3.35134 9.10151 3.18424 9.10151 3.01C9.10151 2.83576 9.0323 2.66866 8.90909 2.54545C8.78589 2.42225 8.61878 2.35303 8.44455 2.35303C8.27031 2.35303 8.1032 2.42225 7.98 2.54545L7.63636 2.92091V0.636364C7.63636 0.467589 7.56932 0.305728 7.44998 0.186387C7.33064 0.0670452 7.16877 0 7 0C6.83123 0 6.66936 0.0670452 6.55002 0.186387C6.43068 0.305728 6.36364 0.467589 6.36364 0.636364V2.92091L6.02 2.54545C5.89679 2.42225 5.72969 2.35303 5.55545 2.35303C5.38122 2.35303 5.21411 2.42225 5.09091 2.54545C4.9677 2.66866 4.89849 2.83576 4.89849 3.01C4.89849 3.18424 4.9677 3.35134 5.09091 3.47455L6.54818 4.90636ZM11.4545 8.27273C11.4545 8.14687 11.4172 8.02383 11.3473 7.91918C11.2774 7.81453 11.178 7.73297 11.0617 7.6848C10.9454 7.63664 10.8175 7.62404 10.694 7.64859C10.5706 7.67315 10.4572 7.73375 10.3682 7.82275C10.2792 7.91175 10.2186 8.02514 10.194 8.14858C10.1695 8.27202 10.1821 8.39997 10.2303 8.51625C10.2784 8.63253 10.36 8.73192 10.4646 8.80184C10.5693 8.87177 10.6923 8.90909 10.8182 8.90909C10.987 8.90909 11.1488 8.84205 11.2682 8.7227C11.3875 8.60336 11.4545 8.4415 11.4545 8.27273ZM12.0909 3.81818H10.1818C10.013 3.81818 9.85118 3.88523 9.73184 4.00457C9.6125 4.12391 9.54545 4.28577 9.54545 4.45455C9.54545 4.62332 9.6125 4.78518 9.73184 4.90452C9.85118 5.02386 10.013 5.09091 10.1818 5.09091H12.0909C12.2597 5.09091 12.4215 5.15795 12.5409 5.2773C12.6602 5.39664 12.7273 5.5585 12.7273 5.72727V10.8182C12.7273 10.987 12.6602 11.1488 12.5409 11.2682C12.4215 11.3875 12.2597 11.4545 12.0909 11.4545H1.90909C1.74032 11.4545 1.57846 11.3875 1.45911 11.2682C1.33977 11.1488 1.27273 10.987 1.27273 10.8182V5.72727C1.27273 5.5585 1.33977 5.39664 1.45911 5.2773C1.57846 5.15795 1.74032 5.09091 1.90909 5.09091H3.81818C3.98696 5.09091 4.14882 5.02386 4.26816 4.90452C4.3875 4.78518 4.45455 4.62332 4.45455 4.45455C4.45455 4.28577 4.3875 4.12391 4.26816 4.00457C4.14882 3.88523 3.98696 3.81818 3.81818 3.81818H1.90909C1.40277 3.81818 0.917184 4.01932 0.55916 4.37734C0.201136 4.73537 0 5.22095 0 5.72727V10.8182C0 11.3245 0.201136 11.8101 0.55916 12.1681C0.917184 12.5261 1.40277 12.7273 1.90909 12.7273H12.0909C12.5972 12.7273 13.0828 12.5261 13.4408 12.1681C13.7989 11.8101 14 11.3245 14 10.8182V5.72727C14 5.22095 13.7989 4.73537 13.4408 4.37734C13.0828 4.01932 12.5972 3.81818 12.0909 3.81818ZM2.54545 8.27273C2.54545 8.39859 2.58278 8.52162 2.6527 8.62627C2.72263 8.73092 2.82201 8.81249 2.93829 8.86065C3.05457 8.90882 3.18252 8.92142 3.30597 8.89686C3.42941 8.87231 3.5428 8.8117 3.63179 8.7227C3.72079 8.63371 3.7814 8.52032 3.80595 8.39688C3.83051 8.27343 3.81791 8.14548 3.76974 8.0292C3.72158 7.91292 3.64001 7.81353 3.53536 7.74361C3.43071 7.67369 3.30768 7.63636 3.18182 7.63636C3.01304 7.63636 2.85118 7.70341 2.73184 7.82275C2.6125 7.94209 2.54545 8.10395 2.54545 8.27273Z" fill="#46597E"/>
</svg>
