

<svg width="9" height="9" viewBox="0 0 9 9" fill="none" xmlns="http://www.w3.org/2000/svg">

<path d="M6.05999 0.504382C6.38306 0.181347 6.82118 -8.43552e-05 7.27797 2.94226e-08C7.73477 8.44141e-05 8.17282 0.181678 8.49576 0.504832C8.8187 0.827986 9.00008 1.26623 9 1.72315C8.99992 2.18008 8.81837 2.61826 8.49531 2.94129L8.2848 3.15186L5.84948 0.715857L6.05999 0.504382ZM5.21344 1.35208L0.584802 5.98113C0.522326 6.0439 0.479765 6.12373 0.462452 6.2106L0.00903438 8.46033C-0.00575797 8.53304 -0.00234395 8.60828 0.0189724 8.67935C0.0402887 8.75042 0.0788456 8.81512 0.131209 8.86767C0.183573 8.92023 0.248118 8.95902 0.319096 8.98058C0.390074 9.00214 0.465282 9.00582 0.538021 8.99127L2.79071 8.54132C2.87766 8.52375 2.95748 8.48086 3.02012 8.41803L7.64875 3.78809L5.21344 1.35208Z" fill="#34365F"/>

</svg>


